<svg xmlns="http://www.w3.org/2000/svg" width="1600" height="650" viewBox="0 0 1600 650" role="img" aria-labelledby="title"><title id="title">physics — JustStudy</title><path fill="#363636" fill-rule="evenodd" d="M1007.36 60.39 C988.37 64.3 968.93 67 949.73 69.71 C930.73 72.39 911.89 76.43 892.9 79.17 C880.41 80.97 867.64 82.58 855.28 85.14 C843.39 87.61 831.23 88.91 819.26 91.09 C815.9 91.7 807.93 91.72 809.44 97.29 C810.77 102.22 818.3 99.53 821.66 98.72 C822.98 98.41 824.36 98.6 825.67 98.23 C826.48 98.01 830.87 96.82 831.17 98.1 C831.3 98.67 829.28 101.27 828.87 101.76 C826.73 104.32 823.42 108.44 822.58 111.7 C821.89 114.41 824.67 116.78 827.27 115.88 C829.58 115.08 831.24 111.18 832.54 109.3 C834.8 106.03 837.36 102.95 839.66 99.7 C840.4 98.64 840.83 96.92 841.67 96.07 C843.36 94.36 848.19 94.8 850.48 94.41 C852.87 94 855.27 93.41 857.68 93.05 C858.12 92.99 859.71 92.54 859.91 93.29 C860.07 93.88 858.1 96.45 857.68 96.96 C856.24 98.75 855 100.91 853.88 102.9 C853.09 104.29 851.65 105.34 851.1 106.9 C850.58 108.4 851.27 110.59 852.88 111.23 C857.53 113.1 861.43 104.28 863.68 101.3 C865.03 99.51 866.51 97.65 867.6 95.69 C868.12 94.76 869.02 92.27 869.77 91.69 C871.2 90.6 873.57 90.58 875.29 90.36 C878.23 89.97 881.13 89.16 884.1 88.83 C885.14 88.71 887.08 87.92 888.1 88.15 C889.3 88.42 886.55 91.96 886.21 92.49 C884.2 95.54 881.12 98.76 879.71 102.1 C879.16 103.39 879.48 105.73 880.89 106.44 C886.12 109.04 888.72 101.65 891.3 98.46 C894.11 94.98 895.84 90.08 898.82 86.89 C899.44 86.22 900.8 86.11 901.71 85.89 C904.45 85.2 909.38 83.87 912.11 84.21 C912.86 84.3 911.78 87.98 911.66 88.49 C910.87 91.85 907.84 97.6 910.82 100.5 C915.34 104.91 916.87 95.96 917.79 93.29 C917.95 92.81 918.03 90.55 918.51 90.4 C919.53 90.1 920.13 91.83 920.49 92.49 C921.53 94.42 923.02 98.64 925.72 98.66 C927.71 98.67 928.29 96.46 928.59 94.89 C929.2 91.73 927.4 89.66 925.92 86.89 C925.4 85.91 923.63 84.01 923.82 82.89 C923.93 82.17 929.01 81.68 929.72 81.56 C934.52 80.7 939.3 79.78 944.13 79.15 C945.67 78.95 948.24 77.73 949.73 78.36 C950.63 78.73 947.87 82.2 947.45 82.89 C945.73 85.69 938.49 92.61 942.7 95.69 C947.12 98.93 951.31 90.68 953.2 87.69 C954.92 84.98 957.22 82.53 958.72 79.69 C959.2 78.78 959.89 76.64 960.94 76.24 C964.48 74.89 969.18 74.91 972.94 74.32 C975.32 73.95 978.59 72.72 980.95 73.13 C981.98 73.31 980.47 74.79 980.39 74.88 C979.13 76.39 978.1 78.19 976.94 79.78 C975.53 81.74 972.59 84.57 971.95 86.89 C971.27 89.4 973.36 92.39 976.14 91.88 C978.54 91.45 980.4 87.95 981.64 86.09 C984 82.52 986.81 79.23 989.21 75.68 C990.01 74.5 990.6 72.66 991.57 71.68 C992.83 70.41 996.09 70.54 997.75 70.24 C1000.96 69.66 1004.18 69.1 1007.36 68.4 C1009.01 68.03 1010.73 68.19 1012.16 67.2 C1014.71 65.45 1014.35 61.33 1011.36 60.19 C1010.11 59.72 1008.62 60.13 1007.36 60.39 Z M492.7 72.34 C477.38 75.05 461.59 75.32 446.27 78.27 C440.76 79.33 433.79 78.73 428.66 81.14 C425.87 82.45 425.08 85.09 423.98 87.69 C422.06 92.25 419.49 96.61 417.76 101.3 C410.16 121.86 398.24 140.8 390.57 161.33 C388.32 167.37 384.76 172.89 382.56 178.94 C381.53 181.77 379.56 183.81 381.08 186.94 C382.36 189.55 386.4 188.89 388.64 188.88 C395.89 188.84 403.03 188.24 410.25 188.23 C412.39 188.22 414.52 188.18 416.66 188.16 C417.2 188.15 418.75 187.8 419.05 188.54 C419.36 189.34 417.49 191.82 417.2 192.54 C415.57 196.6 413.06 200.47 411.56 204.55 C407.72 215.06 401.52 224.66 397.07 234.97 C394.14 241.76 391.04 249.54 387.04 255.91 C384.04 260.7 381.55 266.51 379.49 271.78 C378.71 273.81 378.22 276.53 380.64 277.81 C384.71 279.96 391.09 273.84 394.25 271.73 C403.25 265.69 412 258.4 421.46 253.18 C424.31 251.61 427.47 249.79 430.04 247.77 C433.8 244.83 438.77 241.63 443.07 239.53 C444.72 238.72 447.14 237.12 447.14 234.97 C447.14 230.48 440.66 230.14 437.47 229.1 C436.83 228.9 433.81 228.39 433.55 227.76 C433.24 227.02 435.41 225.09 435.85 224.56 C440.06 219.44 445.22 215.11 449.62 210.15 C461.22 197.1 473.45 184.5 485.49 171.85 C490.05 167.07 494.4 162.09 498.96 157.33 C500.83 155.37 503.81 153.01 504.06 150.12 C504.48 145.23 499.07 145.67 495.9 145.71 C487.34 145.8 478.83 146.56 470.29 146.7 C467.89 146.73 465.48 146.91 463.08 146.91 C462.18 146.91 460.36 147.55 460.41 146.12 C460.43 145.51 462.26 143.54 462.64 142.92 C465.15 138.9 468.25 135.06 470.45 130.91 C477.13 118.37 486.74 107.46 493.31 94.89 C496.27 89.23 501.33 84.19 503.44 78.09 C505.88 71.02 496.8 71.61 492.7 72.34 Z M487.89 81.24 C475.15 83.08 462.25 84.95 449.47 86.39 C445.72 86.82 442 87.58 438.27 87.99 C436.49 88.18 434.31 87.94 432.67 88.83 C431.43 89.5 430.87 92.1 430.33 93.29 C428.27 97.79 426 102.27 424.16 106.9 C417.19 124.53 408.27 141.53 400.74 158.93 C398.55 164 395.64 168.92 393.77 174.13 C393.32 175.4 390.93 178.43 391.39 179.74 C391.63 180.42 392.95 180.08 393.45 180.08 C395.58 180.09 397.71 180.04 399.85 180.01 C407.6 179.89 415.32 179.69 423.06 179.34 C425.81 179.21 430.04 179.16 430.37 182.94 C430.57 185.24 428.6 187.37 427.74 189.34 C426.19 192.89 424.26 196.24 422.71 199.75 C416.14 214.61 407.99 228.77 401.78 243.77 C399.98 248.11 397.69 253.72 395.05 257.62 C394.72 258.1 392.87 261.77 393.45 262.02 C393.93 262.24 395.41 261.14 395.85 260.88 C398.1 259.57 400.08 257.8 402.25 256.39 C408.66 252.19 414.88 247.4 421.46 243.5 C424.74 241.55 429.08 239.55 431.87 236.94 C432.8 236.06 429.26 235.4 428.66 235.21 C425.62 234.25 421.19 233.58 421.84 229.36 C422.17 227.22 424.88 225.12 426.26 223.56 C430.49 218.81 434.88 214.21 438.98 209.35 C450.79 195.32 464.11 182.34 476.69 168.99 C479.9 165.58 483.09 162.15 486.29 158.74 C486.96 158.03 489.73 155.89 489.73 154.92 C489.73 154.19 487.48 154.5 487.09 154.51 C484.69 154.51 482.29 154.67 479.89 154.69 C471.88 154.74 463.88 155.24 455.88 155.51 C452.27 155.63 447.89 155.76 448.23 150.92 C448.37 148.95 450.37 147.01 451.33 145.32 C453.52 141.48 456.43 137.98 458.51 134.11 C465.24 121.6 474.35 110.34 481.53 98.1 C483.89 94.06 486.47 89.94 489.13 86.09 C489.8 85.12 492.22 82.45 492.22 81.29 C492.22 80.56 488.42 81.17 487.89 81.24 Z M932.12 100.16 C930.46 100.23 928.79 103.12 928.66 104.5 C928.32 108.21 931.75 112.48 933.45 115.7 C938.16 124.63 943.67 133.13 948.3 142.12 C952.2 149.69 956.16 157.83 960.94 164.88 C963.7 168.96 965.72 173.73 968.14 178.03 C969.06 179.67 970.27 181.86 972.41 180.54 C978.85 176.57 971.56 168.31 969.07 163.73 C960.6 148.16 951.12 133 943.09 117.31 C940.85 112.94 938.21 108.81 935.86 104.5 C935.21 103.3 933.84 100.08 932.12 100.16 Z M908.91 104.14 C907.3 104.69 906.42 107.86 906.2 109.3 C905.47 114.14 903.85 118.87 902.92 123.71 C901.02 133.61 898.13 143.47 895.83 153.32 C893.27 164.26 891.08 175.22 888.39 186.14 C883.87 204.47 880.68 223.16 875.83 241.37 C874.31 247.08 874.14 253.32 872.45 258.98 C872.02 260.44 869.97 259.86 868.89 259.94 C866.1 260.16 863.46 261.03 860.88 262.09 C853.79 265 849.07 272.01 847.03 278.99 C843.16 292.26 852.43 307.19 865.69 310.45 C878.82 313.68 893.5 303.35 895.69 290.19 C897.1 281.74 894.52 272.5 888.1 266.67 C886.42 265.14 884.54 263.68 882.5 262.69 C882.03 262.46 879.99 261.85 879.85 261.38 C879.35 259.7 880.87 256.72 881.19 254.98 C882.07 250.16 883.15 245.31 884.36 240.57 C888.68 223.6 892.16 206.44 895.95 189.34 C900.81 167.4 906.39 145.7 910.98 123.71 C911.96 119.03 914.4 113.29 914.18 108.5 C914.11 106.87 910.53 103.58 908.91 104.14 Z M665.58 124.48 C653.77 126.21 645.36 132.45 637.57 141.25 C625.93 154.39 618.8 171.2 613.39 187.74 C612.01 191.96 611.03 196.36 609.56 200.55 C609.27 201.36 608.3 200.79 607.96 200.64 C606.12 199.84 604.26 199.03 602.35 198.37 C594.63 195.68 586.85 192.75 579.14 189.93 C575.28 188.51 571.13 187.94 567.13 187.1 C550.96 183.67 527.85 183.52 517.25 198.95 C505.5 216.05 513.8 235.4 522.14 251.77 C524 255.41 526.68 258.58 528.6 262.18 C529.27 263.43 531.07 264.79 531.38 266.18 C531.72 267.72 528.78 270.79 528.42 272.58 C527.29 278.25 527.89 284.06 531.63 288.59 C535.13 292.83 540.79 295.42 546.32 294.42 C548.04 294.11 550.32 292.43 551.93 292.43 C552.45 292.43 553.23 293.6 553.53 293.94 C554.78 295.35 555.92 296.83 557.23 298.2 C558.67 299.7 560.12 301.2 561.53 302.73 C561.91 303.14 562.88 303.94 562.83 304.6 C562.7 306.18 559.07 309.02 558.02 310.2 C553.87 314.86 549.92 319.71 546.09 324.61 C534.82 339.05 525.11 355.05 520.11 372.64 C516.91 383.86 517.95 396.1 525.29 405.45 C538.58 422.36 562.73 418.33 580.74 413.76 C586.2 412.38 591.45 409.98 596.75 408.11 C597.87 407.72 601.27 405.66 602.35 406.33 C603.42 406.98 603.65 411.5 603.86 412.66 C604.84 418.04 606.22 423.42 607.8 428.66 C608.85 432.15 610.08 435.68 611.38 439.07 C618.02 456.42 631.68 479.06 653.58 476.07 C662.5 474.85 669.76 469.52 675.99 463.31 C677.77 461.54 679.47 457.37 681.59 456.23 C683.31 455.31 687.53 457.21 689.6 457.08 C695.95 456.66 702.45 451.67 704.26 445.47 C705.68 440.59 705.15 435.56 702.74 431.07 C701.83 429.36 698.15 427.17 697.96 425.46 C697.86 424.53 699 423.08 699.31 422.26 C700.43 419.35 701.69 416.41 702.66 413.46 C703.43 411.09 703.76 408.39 704.8 406.15 C704.98 405.78 705.17 404.55 705.61 404.42 C707.02 403.99 709.85 405.87 711.21 406.42 C715.64 408.24 720.14 410.77 724.81 411.92 C744.07 416.67 765.75 424.7 783.24 410.38 C792.13 403.11 794.28 390.55 793.3 379.84 C791.61 361.37 780.58 343.35 769.94 328.61 C766.59 323.97 762.65 319.69 759.36 315.01 C758.55 313.86 755.64 311.69 755.64 310.2 C755.64 309.6 756.69 308.91 757.04 308.6 C758.6 307.18 760.13 305.7 761.63 304.22 C767.4 298.52 773.26 293.02 778.7 286.99 C792.5 271.71 805.36 254.23 810.2 234.16 C813.34 221.17 809.44 205.4 796.85 198.67 C791.9 196.03 787.15 194.58 781.64 193.38 C780.22 193.07 780.56 191.13 780.42 190.14 C780.15 188.26 779.05 186.13 777.99 184.54 C774.62 179.54 768.28 177.09 762.43 177.51 C756.82 177.91 750.71 181.63 748.42 186.94 C747.66 188.69 747.58 190.87 746.74 192.54 C746.45 193.12 745.32 192.88 744.83 192.91 C743.26 193.01 741.58 193.45 740.02 193.7 C735.43 194.45 730.9 195.84 726.42 196.96 C724.41 197.46 721.24 199.53 719.21 199.28 C717.96 199.12 717.8 194.1 717.61 193.25 C716.17 186.56 714.88 179.92 713.13 173.33 C712.12 169.53 710.48 165.87 709.28 162.13 C703.47 144.02 687.45 121.28 665.58 124.48 Z M1303.51 132.23 C1301.11 133.2 1301.18 136.25 1302.71 137.83 C1304.02 139.19 1306.64 139.25 1308.31 140.18 C1311.13 141.75 1313.42 143.94 1315.52 146.4 C1319.32 150.84 1320.87 155.93 1322.67 161.33 C1323.21 162.94 1325.11 164 1326.72 163.8 C1331.45 163.22 1328.66 155.75 1327.75 153.32 C1324.98 145.93 1319.58 137.85 1312.31 134.25 C1309.75 132.97 1306.56 130.99 1303.51 132.23 Z M663.18 133.13 C655.42 134.97 648.16 140.6 643.31 146.92 C634.65 158.21 627.59 170.86 623.34 184.54 C621.77 189.59 619.79 194.56 618.65 199.75 C618.41 200.85 617.17 203.6 617.63 204.55 C617.99 205.3 619.32 205.63 619.96 205.91 C622.69 207.12 625.25 208.71 627.97 209.95 C635.49 213.39 642.3 218.26 649.58 222.05 C651.8 223.21 653.75 224.88 655.98 226.05 C656.83 226.5 658.17 227.91 659.18 227.91 C660.04 227.91 661.61 226.32 662.38 225.96 C664.87 224.78 667.13 223.06 669.59 221.83 C679.24 217.02 688.59 211.89 698.4 207.3 C701.29 205.94 704.28 204.82 707.21 203.6 C707.69 203.4 710.37 202.84 710.51 202.15 C710.89 200.31 709.98 197.49 709.61 195.67 C708.73 191.43 708.09 187.15 707.03 182.94 C706.09 179.2 705.35 175.42 704.18 171.73 C698.71 154.46 686.12 127.67 663.18 133.13 Z M788.85 146.76 C786.34 147.29 785.4 150.41 787.25 152.14 C788.74 153.54 791.02 153.94 792.85 154.76 C796.2 156.24 799.42 158.72 801.99 161.33 C804.56 163.94 807.55 166.8 809.13 170.13 C810.24 172.48 811.18 175.2 812.7 177.34 C813.62 178.63 815.76 178.63 816.86 177.74 C820.09 175.14 816.39 169.53 814.95 166.93 C810.96 159.69 804.42 153.06 796.85 149.52 C794.58 148.46 791.51 146.19 788.85 146.76 Z M1292.3 149.94 C1289.91 150.21 1288.73 152.85 1289.63 154.92 C1290.35 156.58 1292.48 156.5 1293.91 157.05 C1296.88 158.19 1299.42 159.76 1301.59 162.13 C1304 164.75 1304.61 168.2 1306.71 170.85 C1307.81 172.23 1309.99 172.05 1311.15 170.93 C1313.57 168.61 1311.26 164.43 1309.91 162.08 C1306.67 156.4 1299.57 149.11 1292.3 149.94 Z M1410.77 156.34 C1406.73 157.4 1406.28 163.09 1409.96 164.87 C1413.41 166.52 1418.22 166.62 1421.97 167.5 C1422.91 167.72 1426.28 168.02 1424.37 169.18 C1422.9 170.07 1420.58 170.29 1418.95 170.93 C1413.9 172.92 1408.67 174.53 1403.56 176.36 C1389.42 181.43 1375.23 186.34 1361.14 191.41 C1341.58 198.45 1322.39 206.71 1302.71 213.02 C1297.02 214.84 1291.58 217.56 1285.9 219.42 C1283.55 220.19 1281.16 221.66 1278.7 222.1 C1277.39 222.33 1276.39 219.18 1276.02 218.16 C1274.86 214.91 1273.41 211.75 1272.11 208.55 C1271.62 207.32 1271.06 205.84 1269.89 205.04 C1263.28 200.56 1256.06 196.68 1249.08 192.77 C1237.5 186.27 1226.32 179.02 1214.67 172.59 C1210.18 170.12 1205.67 167.73 1201.06 165.5 C1199.16 164.59 1196.79 163.18 1194.65 163.86 C1188.65 165.77 1188.09 175.51 1185.91 180.54 C1179.4 195.53 1174.47 211.45 1169.24 226.96 C1168.16 230.16 1167.07 233.34 1166.05 236.57 C1165.41 238.57 1163.94 240.77 1164.86 242.97 C1165.83 245.32 1168.85 245.03 1170.64 244.08 C1172.76 242.97 1173.65 238.66 1174.21 236.57 C1178.07 222.13 1184.78 208.38 1189.36 194.14 C1190.58 190.34 1192.08 186.68 1193.39 182.94 C1193.53 182.54 1194.43 179.45 1194.65 179.45 C1195.78 179.45 1195.78 180.56 1196.12 181.34 C1196.92 183.2 1197.77 185.08 1198.66 186.91 C1202.5 194.86 1205.88 203.36 1208.77 211.75 C1211.38 219.35 1215.16 226.66 1218.05 234.16 C1224.97 252.06 1232.69 269.73 1239.24 287.79 C1241.77 294.78 1244.71 301.65 1247.36 308.6 C1248.29 311.05 1250.86 314.78 1250.86 317.41 C1250.86 318.2 1249.38 317.76 1249.08 317.68 C1247.2 317.14 1245.39 316.47 1243.48 316.11 C1235.81 314.64 1227.64 311.8 1220.27 309.22 C1216.94 308.06 1213.28 307.35 1209.86 306.46 C1201.04 304.17 1192.13 301.47 1183.45 298.69 C1174.49 295.82 1165.15 294.04 1156.24 290.99 C1154.24 290.31 1155.63 289.12 1155.83 287.79 C1156.18 285.54 1156.73 280.36 1153.83 279.36 C1149.34 277.81 1147.74 286.83 1146.83 289.39 C1146.48 290.4 1145.75 291.45 1145.75 292.59 C1145.75 296.62 1148.97 297.78 1152.23 298.59 C1158.34 300.11 1164.71 301.62 1170.64 303.7 C1176.92 305.91 1183.52 307.11 1189.85 309.13 C1203.6 313.52 1217.57 317.39 1231.47 321.08 C1237.11 322.58 1242.58 324.63 1248.28 325.87 C1251.76 326.62 1254.99 327.99 1258.69 327.38 C1263.09 326.65 1266.83 323.24 1270.69 321.32 C1278.05 317.66 1285.02 313.22 1292.3 309.33 C1295.51 307.62 1298.7 305.89 1301.91 304.22 C1303.22 303.53 1304.85 303.04 1305.91 301.97 C1308.93 298.91 1307.56 296.1 1306.44 292.59 C1306.27 292.08 1304.69 287.77 1305.11 287.77 C1308.54 287.77 1313.11 290.77 1316.32 291.95 C1324.06 294.82 1331.72 298.17 1339.53 300.77 C1362.12 308.28 1383.61 318.82 1405.96 326.52 C1411.15 328.31 1417.1 330.11 1422 332.62 C1422.54 332.89 1426.54 334.55 1426.54 335.02 C1426.54 335.34 1426.16 335.55 1425.97 335.82 C1425.18 336.94 1428.64 339.28 1429.17 339.82 C1429.69 340.33 1431.11 339.51 1431.58 339.82 C1432.6 340.5 1426.8 342.83 1425.97 343.31 C1423.53 344.7 1418.1 349.45 1422.77 352.02 C1425.87 353.72 1428.55 351.65 1431.58 350.81 C1438.77 348.8 1447.83 346.68 1453.99 342.36 C1456.85 340.35 1455.53 335.88 1453.99 333.55 C1450.14 327.75 1444.63 322.35 1439.76 317.41 C1437.79 315.4 1436.27 312.78 1433.18 312.88 C1430.46 312.96 1428.38 315.38 1429.42 318.21 C1429.84 319.34 1430.96 320.2 1431.19 321.41 C1431.34 322.26 1430.36 322.98 1429.97 323.81 C1429.75 324.29 1430.29 324.98 1429.97 325.41 C1429.51 326.04 1425.33 324.87 1424.92 324.61 C1423.11 323.48 1420.75 323.12 1418.77 322.31 C1415.86 321.14 1412.93 319.75 1409.96 318.69 C1389.25 311.29 1368.98 302.51 1348.33 294.62 C1337.17 290.36 1325.91 286.2 1314.72 281.98 C1310.29 280.31 1304.15 279.31 1300.31 276.62 C1299.59 276.12 1299.25 274.15 1298.98 273.38 C1298.1 270.94 1296.86 268.62 1295.98 266.18 C1295 263.47 1293.71 260.86 1292.67 258.18 C1292.26 257.11 1290.92 255.35 1291.22 254.18 C1291.41 253.44 1294.87 253.84 1295.51 253.85 C1299.52 253.91 1303.51 253.99 1307.51 254.18 C1317.3 254.62 1327.38 254.19 1337.13 255.31 C1344.51 256.15 1352.11 255.14 1359.54 256.01 C1365.55 256.71 1371.89 256.57 1377.95 256.8 C1389.43 257.23 1400.9 258.02 1412.37 258.55 C1416.5 258.74 1420.7 258.44 1424.82 258.98 C1429.64 259.61 1434.72 259.72 1439.58 259.99 C1440.2 260.03 1444.17 259.8 1444.29 260.58 C1444.42 261.37 1441.39 263.28 1440.82 263.78 C1437.76 266.47 1433.49 269.17 1431.23 272.58 C1429.87 274.64 1429.98 277.87 1432.38 279.19 C1435.26 280.76 1437.51 278.94 1439.58 277.11 C1444.41 272.83 1449.48 268.08 1454.79 264.43 C1456.67 263.13 1460.25 261.11 1461.26 258.98 C1462.56 256.23 1461.97 254.22 1460.44 251.77 C1459.43 250.15 1456.39 249.06 1454.79 248.12 C1449.74 245.16 1444.83 241.82 1439.58 239.27 C1437.09 238.07 1433.25 234.32 1430.28 236.57 C1423.42 241.75 1433.86 246.58 1437.98 248.74 C1438.45 248.99 1441.75 250.46 1441.75 250.97 C1441.75 251.92 1437.81 251.37 1437.18 251.35 C1432.64 251.2 1428.13 250.53 1423.57 250.45 C1404.1 250.12 1384.64 247.78 1365.14 247.4 C1345.66 247.03 1326.21 245.39 1306.71 245.62 C1301.93 245.68 1297.04 244.88 1292.3 245.1 C1291.48 245.13 1288.03 245.87 1287.5 245.25 C1285.72 243.19 1284.95 239.08 1283.91 236.57 C1283.21 234.88 1281.62 232.78 1281.49 230.96 C1281.38 229.6 1282.55 229.84 1283.5 229.45 C1285.6 228.58 1287.79 227.94 1289.9 227.09 C1298.33 223.71 1307.08 220.94 1315.52 217.5 C1341.07 207.07 1367.59 197.58 1393.96 188.71 C1402.24 185.92 1410.51 182.87 1418.77 179.99 C1421.79 178.94 1425.98 176.19 1429.17 176.13 C1431.11 176.09 1428.4 179.77 1427.92 180.54 C1425.78 183.93 1422.27 188.58 1421.47 192.54 C1420.83 195.76 1423.57 198.43 1426.77 197.67 C1429.51 197.02 1430.86 193.13 1432.05 190.94 C1435.3 184.96 1439.08 179.27 1442.43 173.33 C1443.79 170.91 1445.92 168.29 1444.69 165.33 C1443.38 162.19 1439.96 162.08 1437.18 161.33 C1431.37 159.76 1425.42 158.99 1419.57 157.66 C1416.92 157.05 1413.51 155.62 1410.77 156.34 Z M773.64 158.72 C771.02 159.92 771.73 162.94 773.64 164.31 C775.13 165.39 777.5 165.26 779.24 165.99 C783.07 167.6 786.41 169.81 789.65 172.38 C793.66 175.57 795.93 180.32 798.38 184.54 C799.13 185.82 801.46 185.93 802.45 185.05 C805.64 182.23 801.44 176.82 799.79 174.13 C795.62 167.34 789.04 162.61 781.64 159.88 C779.31 159.01 776.11 157.6 773.64 158.72 Z M255.78 177.31 C252.27 177.8 252.61 181.07 251.77 183.62 C249.72 189.87 247.21 195.95 243.34 201.35 C239.91 206.14 235.4 210.99 230.16 213.79 C228.27 214.8 224.71 216.04 225.17 218.96 C225.64 221.86 230.53 222.06 232.56 222.68 C237.54 224.19 242.58 227.54 246.17 231.38 C251.08 236.63 253.55 242.94 256.43 249.37 C257.28 251.26 259.26 252.67 261.38 252.02 C264.22 251.15 264.42 246.91 265.01 244.57 C266.52 238.55 269.55 232.79 273.12 227.76 C276.27 223.33 281.41 218.7 286.19 216.18 C288.19 215.13 291.13 213.8 290.32 210.95 C289.51 208.08 284.45 207.93 282.19 207.12 C277.34 205.38 272.84 201.7 269.38 197.87 C265.41 193.46 262.71 187.69 260.78 182.14 C259.96 179.82 258.82 176.88 255.78 177.31 Z M1203.46 176.84 C1202.92 177.05 1204.46 179.95 1204.67 180.54 C1206.02 184.35 1208.16 187.88 1209.42 191.74 C1213.67 204.83 1220.36 217.14 1224.87 230.16 C1225.9 233.15 1227.67 235.93 1228.62 238.97 C1229.82 242.85 1231.73 246.42 1233.24 250.17 C1237.51 260.78 1241.73 271.42 1245.7 282.19 C1247.78 287.84 1250.64 293.28 1252.59 299 C1254.27 303.9 1256.47 308.55 1258.33 313.41 C1258.55 313.98 1259.57 317.43 1260.29 317.43 C1262.58 317.43 1266.31 314.11 1268.29 313.04 C1275.54 309.15 1282.53 304.74 1289.9 301.07 C1292.25 299.9 1294.6 298.7 1296.9 297.4 C1297.36 297.13 1298.88 296.56 1298.88 295.8 C1298.88 293.16 1296.31 289.44 1295.4 286.99 C1292.91 280.23 1289.85 273.68 1287.26 266.98 C1282.71 255.18 1277.17 243.62 1272.93 231.76 C1271.26 227.12 1268.93 222.76 1267.23 218.16 C1266.46 216.07 1265.79 213.65 1264.59 211.75 C1263.44 209.95 1258.96 208.36 1257.09 207.28 C1250.16 203.29 1243.43 198.77 1236.28 195.13 C1227.79 190.81 1219.92 185.2 1211.46 180.76 C1209.33 179.64 1207.27 178.43 1205.06 177.44 C1204.56 177.22 1204.13 176.58 1203.46 176.84 Z M976.94 180.49 C976.08 180.49 975.22 181.83 974.54 182.2 C973.98 182.51 972.67 183.09 972.38 183.74 C971.91 184.81 972.94 186.76 973.41 187.74 C975.01 191.03 976.98 194.12 978.69 197.35 C979.39 198.66 980.69 202.09 982.55 202.05 C984.23 202.01 986.29 197.97 986.32 196.55 C986.36 195.1 985.24 193.8 984.64 192.54 C983.2 189.54 981.33 186.75 979.93 183.74 C979.38 182.55 978.55 180.49 976.94 180.49 Z M762.43 188.29 C755.11 189.87 756.23 202.22 764.04 201.45 C772.38 200.63 770.88 186.47 762.43 188.29 Z M256.58 193.96 C256.24 193.96 255.13 196.47 254.98 196.72 C253.14 199.87 251.92 203.29 249.58 206.15 C247.21 209.05 245 211.89 242.17 214.4 C241.34 215.14 239.15 216.09 239.51 217.36 C239.68 217.95 243.12 219.22 243.77 219.54 C246.74 221.01 249.79 223.73 252.04 226.16 C254.1 228.37 255.77 230.82 257.38 233.36 C257.92 234.21 258.59 236.29 259.78 236.05 C260.07 235.99 260.99 233.01 261.2 232.56 C262.75 229.13 264.72 226.05 266.85 222.96 C268.71 220.28 271.21 217.84 273.69 215.76 C274.32 215.22 276.38 214.38 276.28 213.35 C276.18 212.34 273.32 211.53 272.58 211.2 C269.78 209.93 266.39 206.95 264.48 204.55 C262.39 201.93 260.45 199.37 258.67 196.55 C258.22 195.84 257.58 193.96 256.58 193.96 Z M542.32 194.05 C538.73 194.87 535.27 195.6 531.92 197.19 C521.96 201.9 518.48 212.62 519.63 222.96 C520.45 230.37 524.64 237.1 527.45 243.77 C529.31 248.17 532.11 252.59 534.71 256.58 C535.33 257.51 536.52 260.43 537.52 260.86 C538.85 261.45 543.03 259.39 544.72 259.24 C550.35 258.74 554.8 261.56 558.33 265.65 C562.15 270.09 562.96 276.74 560.97 282.19 C560.55 283.33 558.18 286.02 558.18 286.99 C558.18 287.97 560.09 289.32 560.73 289.97 C562.64 291.89 564.56 293.81 566.4 295.8 C566.93 296.36 567.95 297.81 568.74 298.02 C569.49 298.22 570.31 297.04 570.76 296.6 C572.24 295.14 573.67 293.64 575.14 292.18 C580.3 287.06 585.61 281.96 591.15 277.26 C592.82 275.85 597.4 273.29 597.74 270.98 C599.68 257.67 600.41 244.19 603.01 230.96 C603.89 226.45 604.39 221.82 605.45 217.36 C605.89 215.48 607.41 212.05 607.13 210.15 C606.96 208.97 604.9 208.46 603.95 208.13 C600.44 206.87 597.1 205.2 593.55 204.01 C588.72 202.4 583.97 200.37 579.14 198.71 C572.68 196.48 565.8 195.68 559.13 194.33 C554 193.3 547.49 192.88 542.32 194.05 Z M743.22 201.26 C737.61 202.72 731.86 203.83 726.42 205.69 C725.36 206.05 721.26 206.87 720.72 207.75 C719.79 209.28 720.64 211.64 720.86 213.35 C721.34 217.05 721.62 220.84 721.91 224.56 C722.82 236.25 723.55 248.04 723.55 259.78 C723.55 264.04 723.65 268.32 723.58 272.58 C723.56 273.99 723.09 276.05 723.58 277.39 C724.31 279.43 727.83 281.47 729.37 282.99 C734.29 287.86 739.19 292.7 744.02 297.67 C745.1 298.77 748.93 303.94 750.43 303.37 C752.01 302.77 753.97 300.16 755.24 299 C759.38 295.23 763.31 291.22 767.24 287.24 C776.57 277.76 786.37 266.71 792.53 254.98 C795.62 249.09 800 243.24 801.28 236.57 C803.22 226.38 804.63 215.05 795.25 207.73 C792.02 205.2 788.67 203.64 784.85 202.27 C783.76 201.89 781.26 200.58 780.04 200.94 C779.3 201.17 777.84 205.29 777.17 206.15 C773.78 210.49 767.22 213.9 761.63 212.64 C757.07 211.61 753.62 210.13 750.43 206.58 C749.37 205.4 748.83 204.07 748.03 202.76 C747.72 202.26 747.8 201.16 747.23 200.93 C746.24 200.54 744.22 201 743.22 201.26 Z M988.15 202.63 C986.01 203.21 984.3 205.43 984.63 207.75 C985.19 211.55 988.85 216.54 990.89 219.76 C992.13 221.71 993.44 224.01 996.15 223.25 C997.43 222.9 998.76 221.05 998.69 219.76 C998.63 218.45 997.5 216.89 996.92 215.76 C995.28 212.55 993.81 209.26 992 206.15 C991.16 204.71 990.19 202.07 988.15 202.63 Z M711.21 210.93 C710.39 210.93 709.55 211.74 708.81 212 C706.3 212.88 704.02 214.02 701.6 215.06 C693.1 218.72 685.05 223.28 676.79 227.32 C674.31 228.53 671.98 230.02 669.59 231.29 C668.95 231.63 666.73 232.29 667.27 233.36 C667.69 234.2 669.61 235.05 670.39 235.53 C673.16 237.23 675.58 239.5 678.39 241.14 C687.41 246.44 695.45 254.13 703.7 260.58 C706.3 262.6 708.95 264.72 711.35 266.98 C711.93 267.53 713.59 269.58 714.41 269.58 C715.02 269.58 714.81 266.59 714.81 266.18 C714.84 262.98 714.93 259.77 714.93 256.58 C714.93 244.77 713.58 233.12 713 221.36 C712.86 218.69 712.41 216.04 712.28 213.35 C712.24 212.67 712.46 210.93 711.21 210.93 Z M615.16 213.56 C613.89 214.11 613.86 219.34 613.56 220.48 C611.52 228.2 610.44 236.65 609.46 244.57 C608.86 249.38 607.93 254.15 607.44 258.98 C607.35 259.86 606.39 263.79 607.96 263.43 C608.43 263.33 609.16 262.24 609.56 261.96 C611.74 260.38 613.83 258.71 615.96 257.07 C621.88 252.48 627.92 247.38 634.37 243.58 C638.48 241.15 642.53 238.4 646.5 235.77 C647.19 235.31 650.81 233.61 650.31 232.56 C649.47 230.81 644.82 229.11 643.17 228.13 C636.96 224.43 630.61 220.44 623.96 217.59 C621.78 216.65 619.8 215.27 617.56 214.42 C616.86 214.15 616.01 213.2 615.16 213.56 Z M1000.16 226.67 C998.18 227.16 996.82 228.88 997.25 230.96 C998.04 234.75 1001.45 240.87 1003.97 243.77 C1004.85 244.77 1007.3 244.52 1007.91 245.37 C1007.94 245.41 1008.13 247.03 1008.16 247.03 C1008.52 247.03 1008.58 245.53 1008.61 245.37 C1008.9 244 1010.17 242.87 1009.97 241.37 C1009.74 239.63 1008.49 238.09 1007.7 236.57 C1006.34 233.92 1005.17 231.1 1003.6 228.56 C1002.85 227.36 1001.63 226.3 1000.16 226.67 Z M657.58 238.61 C644.31 247.13 630.62 255.49 618.36 265.64 C615.43 268.07 612.5 270.51 609.56 272.92 C608.69 273.63 606.66 274.71 606.26 275.79 C604.73 280 605.38 286.5 605.16 290.99 C604.71 300.36 604.27 309.62 604.32 319.01 C604.34 322.32 603.59 327.05 604.51 330.21 C604.76 331.1 606.35 332.07 607.04 332.62 C608.94 334.13 610.82 335.66 612.76 337.13 C619.88 342.53 626.86 348.3 634.37 353.15 C640.35 357 645.87 361.47 651.98 365.15 C653.32 365.96 656.01 368.67 657.58 368.67 C659.71 368.67 662.15 366.33 663.98 365.39 C668.94 362.86 673.51 359.56 678.39 356.88 C686.5 352.4 693.76 346.16 701.6 341.22 C703.55 339.99 705.3 338.47 707.21 337.17 C708.05 336.6 709.9 335.78 710.41 334.92 C712.59 331.23 712.03 324.06 712.37 319.81 C713.07 310.99 713.73 302.24 714.12 293.4 C714.3 289.5 715.1 285.29 714.61 281.39 C714.49 280.42 712.68 279.31 712.01 278.7 C709.43 276.36 706.78 274.05 704.12 271.78 C693.58 262.79 682.41 254.57 671.19 246.57 C668.05 244.34 664.9 241.92 661.58 239.99 C660.26 239.22 659.21 237.57 657.58 238.61 Z M1145.83 246.75 C1142.17 247.67 1141.24 252.43 1144.23 254.66 C1146.87 256.64 1152.24 256.43 1155.43 257.24 C1157.84 257.86 1160.55 258.97 1157.04 260.71 C1150.51 263.95 1143.09 266.08 1136.22 268.54 C1119.6 274.51 1103.07 281.1 1086.6 287.62 C1076.79 291.5 1066.53 294.73 1056.98 299.03 C1054.64 300.09 1052.4 301.42 1049.78 301.61 C1049.36 301.64 1047.74 302.19 1047.58 301.4 C1047.47 300.85 1048.47 300.09 1048.77 299.8 C1050.07 298.55 1051.07 297.04 1052.18 295.65 C1055.51 291.5 1057.08 286.41 1058.4 281.39 C1059 279.14 1060.24 275.82 1058.59 273.72 C1057.15 271.9 1054.54 271.92 1053.42 274.19 C1052.3 276.46 1052.34 279.72 1051.48 282.19 C1049.55 287.76 1045.79 292.76 1041.33 296.6 C1036.68 300.59 1030.99 302.95 1024.97 303.82 C1022.63 304.15 1020.01 303.41 1017.76 304.02 C1015.95 304.51 1014.55 306.85 1015.53 308.6 C1016.65 310.6 1018.89 310.79 1020.97 310.94 C1026.01 311.3 1030.65 310.43 1035.37 308.82 C1036.57 308.41 1038.05 307.09 1039.38 307.09 C1041.3 307.1 1041.28 310.58 1043.38 310.79 C1044.57 310.9 1046.18 310.28 1047.38 310.05 C1051.57 309.25 1055.38 308.26 1059.39 306.84 C1073.6 301.8 1087.47 295.29 1101.81 290.59 C1117.5 285.44 1132.77 278.76 1148.23 272.92 C1151.96 271.51 1155.9 270.7 1159.44 268.91 C1160.14 268.55 1163.53 266.76 1164.24 266.99 C1165.42 267.36 1163.16 270.36 1162.84 270.98 C1161.36 273.9 1158.05 276.41 1157.51 279.79 C1157.14 282.09 1159.64 284.19 1161.84 283.89 C1164.81 283.49 1166.61 279.64 1167.96 277.39 C1170.75 272.73 1174.27 268.13 1177.48 263.78 C1179.49 261.05 1182.15 258.51 1180.52 254.98 C1179.24 252.21 1174.7 252.75 1172.24 252.07 C1166.3 250.42 1159.93 248.91 1153.83 248.15 C1151.33 247.83 1148.39 246.1 1145.83 246.75 Z M1016.16 247.6 C1013.98 248.19 1010.89 247.51 1008.96 248.7 C1008.41 249.04 1008.87 250.56 1008.16 251.14 C1002.94 255.45 999.21 260.87 998.35 267.78 C996.41 283.4 1011.6 296.24 1026.57 292.09 C1037.42 289.08 1044.23 277.04 1042.19 266.18 C1040.05 254.81 1028.23 244.36 1016.16 247.6 Z M480.69 257.91 C478.59 258.83 477.94 261.8 478.75 263.78 C479.58 265.8 483.07 266.66 484.71 267.78 C485.71 268.46 487.61 268.88 487.18 270.18 C487.09 270.47 484.27 270.66 483.89 270.69 C480.28 270.94 476.22 271.62 472.69 272.44 C457 276.1 441.24 279.33 426.26 285.58 C410.35 292.21 395.01 299.28 380.55 308.6 C377.01 310.89 373.39 313.44 370.23 316.24 C368.81 317.5 367.69 319.43 368.3 321.41 C368.82 323.06 371 324.36 372.64 323.94 C376.31 323.01 379.74 318.61 383.04 316.73 C391.77 311.77 400.2 305.93 409.45 301.91 C416.9 298.69 424.38 295.56 431.87 292.42 C445.36 286.76 460.68 283.26 475.09 280.82 C478.55 280.23 481.97 279.43 485.49 279.09 C485.88 279.05 488.35 278.6 488.58 278.99 C488.95 279.59 486.94 281.65 486.53 282.19 C484.97 284.22 482.17 286.23 481.14 288.59 C479.87 291.5 482.27 294.9 485.49 294.05 C487.71 293.46 489.64 290.92 491.26 289.39 C495.18 285.7 499.21 282.05 502.95 278.19 C504.76 276.32 506.88 274.69 506.59 271.78 C506.31 269.09 503.56 267.79 501.5 266.62 C497.03 264.07 492.49 261.75 487.89 259.42 C485.67 258.3 483.29 256.77 480.69 257.91 Z M868.89 268.41 C861.07 270.07 855.31 275.7 854.33 283.79 C852.98 294.85 863.9 304.31 874.49 302.3 C883.22 300.64 889.48 290.79 887.63 282.19 C885.9 274.19 877.64 266.55 868.89 268.41 Z M543.92 269.96 C536.52 271.29 537.6 283.93 545.52 282.38 C553.16 280.89 551.71 268.56 543.92 269.96 Z M654.38 278.02 C636.04 281.12 629.35 303.61 638.3 318.21 C641.7 323.75 647.74 326.64 653.58 328.37 C656.51 329.24 660.12 329.46 663.18 328.85 C666.95 328.1 670.27 326.76 673.59 324.85 C685.79 317.82 687.45 299.48 680.21 288.59 C674.56 280.09 664.19 276.35 654.38 278.02 Z M989.75 283.58 C987.83 284.24 982.21 285.65 981.5 287.79 C979.72 293.1 985.72 293.13 988.95 291.93 C990.75 291.27 993.33 290.56 994.15 288.59 C995.37 285.64 992.78 282.52 989.75 283.58 Z M595.95 284.21 C594.85 284.21 591.8 287.81 590.93 288.59 C586.67 292.4 582.22 296.17 578.34 300.37 C577.32 301.47 575.03 302.98 575.03 304.6 C575.03 305.12 577.03 306.63 577.42 307 C579.98 309.49 582.71 311.78 585.32 314.21 C587.67 316.38 590.11 318.45 592.47 320.61 C593.05 321.14 594.27 322.74 595.15 322.6 C595.7 322.51 595.37 318.04 595.37 317.41 C595.38 312.08 595.47 306.72 595.74 301.4 C595.95 297.15 596.34 292.85 596.36 288.59 C596.36 287.85 596.94 284.21 595.95 284.21 Z M290.99 287.65 C276.74 289.66 262.48 289.73 248.57 294.04 C215.6 304.24 185.03 326.1 171.45 359.03 C166.78 370.33 163.03 382.68 162.61 395.05 C161.97 413.57 166.68 431.98 172.01 449.47 C178.48 470.67 188.73 491.27 208.55 503.23 C216.95 508.3 226.79 514.26 236.57 516.11 C244.01 517.52 251.33 519.53 258.98 520.08 C275.04 521.24 290.79 518.64 306.2 514.48 C326.46 509.02 344.84 497.83 363.83 489.34 C368.39 487.3 372.8 484.7 377.44 482.79 C379.2 482.07 381.67 481.03 382.48 479.09 C384.24 474.84 383.19 466.74 382.25 462.28 C381.24 457.45 381.54 452 381.07 447.07 C380.89 445.25 381.37 443.25 380.86 441.47 C380.06 438.62 378.16 436.19 377.17 433.47 C375.07 427.74 372.13 422.34 369.95 416.66 C369.07 414.35 368.37 409.98 366.23 408.49 C362.18 405.67 359.05 408.18 355.03 409.69 C349.34 411.83 343.89 414.65 338.22 416.78 C312.61 426.38 282.06 441.55 254.17 430.92 C246.91 428.15 240.63 424.66 234.96 419.16 C233.59 417.82 230.7 415.46 230.43 413.46 C230.2 411.66 231.49 409.51 232.02 407.85 C234.3 400.67 239.21 394.82 244.57 389.65 C265.06 369.89 297.01 369.12 323.81 368.46 C331.54 368.27 339.28 368.27 347.02 368.27 C350.07 368.27 354.47 368.8 356.16 365.43 C358.32 361.12 357.06 354.21 357.18 349.42 C357.54 335.53 357.68 321.71 357.68 307.8 C357.68 302.73 359.75 293.13 355.03 289.75 C353.13 288.39 350.85 288.71 348.62 288.71 C345.12 288.71 341.72 288.33 338.22 288.19 C327.57 287.77 316.85 287.57 306.2 287.59 C301.28 287.6 295.86 286.96 290.99 287.65 Z M973.74 289.24 C970.6 289.62 965.42 290.43 962.99 292.59 C961.73 293.72 960.98 296.91 963.34 297.63 C964.63 298.02 966.8 297.91 968.14 297.78 C970.36 297.56 974.99 296.77 976.47 295 C978.18 292.93 976.82 288.86 973.74 289.24 Z M724.01 289.96 C722.95 289.96 723.22 293.8 723.17 295 C722.92 300.09 722.23 305.12 722.04 310.2 C721.89 314.48 721.4 318.75 721.03 323.01 C720.99 323.4 720.4 327.19 720.81 327.19 C722.26 327.19 724.66 324.7 725.77 323.81 C730.06 320.36 734.42 317 738.61 313.41 C739.38 312.75 743.31 310.4 743.31 309.4 C743.31 308.48 741.21 306.85 740.6 306.2 C737.99 303.4 735.3 300.82 732.52 298.2 C730.24 296.05 727.85 294.02 725.64 291.79 C725.06 291.21 724.83 289.96 724.01 289.96 Z M907.31 291.35 C903.92 292.7 904.73 297.66 908.11 298.42 C910.89 299.04 914.1 299.02 916.91 299.18 C920.17 299.37 923.88 301.72 927.32 300.06 C929.39 299.06 929.27 294.88 927.32 293.86 C924.75 292.51 921.28 293.23 918.51 293.04 C915.23 292.81 910.64 290.02 907.31 291.35 Z M949.73 293.27 C946.27 293.7 941.82 292.9 938.52 293.88 C935.49 294.78 935.49 299.91 938.52 300.83 C942.56 302.05 948.81 300.61 952.93 300.13 C956.3 299.74 957.15 295.69 954.53 293.71 C953.3 292.78 951.18 293.09 949.73 293.27 Z M287.79 296.53 C275.95 298.19 264.14 298.75 252.57 301.93 C224.72 309.57 200.27 327.04 185.04 351.82 C178.9 361.81 174.57 373.12 172.36 384.64 C170.84 392.56 170.83 400.7 172.02 408.65 C176.36 437.42 199.49 463.2 226.96 472.2 C239.29 476.24 251.49 478.22 264.58 478.05 C291.55 477.69 316.25 465.76 339.82 454.62 C341.75 453.71 339.82 450.98 339.31 449.47 C337.54 444.29 334.9 439.41 333.03 434.27 C332.55 432.95 331.88 428.99 330.21 429 C326.91 429.02 322.94 431.98 319.81 433.01 C312.36 435.44 304.91 437.8 297.4 440.05 C265.4 449.66 223.56 437.38 215.57 401.45 C214.2 395.3 214.51 389.22 215.35 383.04 C219.5 352.66 247.98 333.17 275.79 327.53 C284.68 325.73 293.93 324.8 303 324.38 C307.23 324.19 312.56 324.99 316.61 323.83 C317.8 323.49 317.16 319.16 317.16 318.21 C317.16 313.14 317.09 308.06 317.19 303 C317.21 301.63 317.88 298.61 317.29 297.4 C316.49 295.72 311.65 296.32 310.2 296.29 C302.99 296.12 294.93 295.53 287.79 296.53 Z M325.41 297.08 C324.86 297.44 325.2 299.21 325.19 299.8 C325.16 302.73 325.13 305.67 325.17 308.6 C325.24 312.78 323.86 319.08 325.25 323.01 C325.55 323.86 329.46 323.41 330.21 323.41 C334.75 323.41 339.28 323.17 343.82 323.11 C344.78 323.1 347.92 323.63 348.62 322.94 C349.48 322.09 349.2 320.91 349.15 319.81 C349.02 317.14 349 314.47 348.98 311.8 C348.97 308.34 349 304.87 348.98 301.4 C348.97 300.44 349.41 298.22 348.62 297.55 C347.66 296.74 345 297.14 343.82 297.03 C339.41 296.62 334.64 296.56 330.21 296.69 C328.82 296.72 326.6 296.3 325.41 297.08 Z M568.74 310.92 C568.4 310.92 567.37 312.16 567.13 312.41 C565.88 313.73 564.74 315.22 563.55 316.61 C558.85 322.12 554.05 327.51 549.85 333.42 C540.28 346.89 529.53 361.52 526.95 378.24 C526.32 382.28 526.09 387.04 527.07 391.04 C529.89 402.61 541.18 409.43 552.73 409.68 C565.78 409.95 578.17 405.97 590.35 401.78 C593.18 400.81 596.21 399.65 598.86 398.25 C599.55 397.88 600.99 397.65 601.13 396.65 C601.43 394.69 600.35 391.38 600 389.44 C599.15 384.72 598.64 379.81 598.15 375.04 C597.2 365.75 596.43 356.35 596.09 347.02 C595.96 343.45 596.59 338.38 595.64 335.02 C595.25 333.67 593.41 332.73 592.45 331.81 C589.24 328.75 585.65 326.14 582.34 323.18 C579.11 320.28 575.66 317.37 572.7 314.21 C571.85 313.3 570.09 310.92 568.74 310.92 Z M1043.38 314.2 C1039.95 314.2 1036.37 317.8 1032.97 318.53 C1030.39 319.08 1026.5 318.68 1024.25 319.81 C1020.82 321.53 1022.35 325.11 1025.77 325.46 C1032.54 326.16 1038.3 323.54 1044.18 320.68 C1045.19 320.18 1047.41 318.75 1047.32 317.41 C1047.22 315.94 1044.72 314.2 1043.38 314.2 Z M748.83 315.71 C747.96 315.71 746.25 317.96 745.63 318.53 C742.58 321.33 739.2 323.89 736.02 326.54 C732.53 329.45 728.69 332.83 724.81 335.2 C723.24 336.16 719.61 338.03 718.88 339.82 C717.3 343.72 717.66 349.25 717.06 353.43 C716.03 360.67 714.27 367.83 713.12 375.04 C712.36 379.85 711.08 384.76 709.81 389.44 C709.39 391 707.72 394.2 708.33 395.85 C708.62 396.62 710.55 397.14 711.18 397.45 C714.28 398.97 717.53 400.17 720.74 401.45 C733.55 406.57 746.92 410.69 760.83 410.49 C775.8 410.29 787.1 397.95 785.88 383.04 C784.45 365.4 774.37 351.2 765.46 336.62 C762.01 330.97 757.56 325.66 753.27 320.61 C752.39 319.57 750.35 315.71 748.83 315.71 Z M486.29 319.76 C483.07 320.08 481.64 323.43 482.9 326.21 C483.81 328.21 487.74 330.43 489.45 331.81 C489.95 332.22 490.93 333.54 490.3 333.54 C484.66 333.54 478.41 332.27 472.69 331.86 C461.52 331.06 450.1 331.92 439.07 333.6 C432.92 334.54 426.44 335.25 420.61 337.42 C406.69 342.6 393.19 347.08 380.64 355.46 C377.67 357.44 372.81 359.93 371.03 363.11 C370.12 364.74 370.65 367.5 372.64 368.21 C375.5 369.23 377.61 366.62 379.84 365.41 C385.5 362.34 390.7 358.23 396.65 355.7 C404.01 352.58 411.32 348.89 419.06 346.73 C431.59 343.24 444.42 341.23 457.48 340.32 C465.99 339.74 474.63 340.59 483.09 341.07 C484.99 341.18 486.78 341.75 488.69 341.81 C488.9 341.82 490.37 341.72 490.37 342.22 C490.37 343.15 488.51 343.91 487.89 344.35 C485.72 345.93 481.53 348.35 480.62 351.02 C479.59 354.04 482.28 357.13 485.49 356.24 C487.3 355.73 488.67 354 490.3 353.14 C494.97 350.69 499.29 347.63 503.9 345.1 C505.68 344.12 508.36 342.96 508.73 340.62 C509.08 338.4 508.65 336.79 507.28 335.02 C506.14 333.54 503.98 332.22 502.53 331.01 C499.33 328.35 496.3 325.15 492.71 323.01 C490.63 321.77 489 319.49 486.29 319.76 Z M315.81 332.6 C285.47 332.6 248.63 337.13 231.21 365.43 C226.65 372.84 224.61 380 223.8 388.64 C223.47 392.19 223.16 397.34 224.95 400.65 C225.51 401.69 227.03 397.97 227.32 397.45 C228.7 394.94 230.32 392.51 232.05 390.24 C237.02 383.74 244.3 376.8 251.77 373.22 C263.05 367.81 274.39 363.75 286.99 362.06 C293.75 361.16 300.98 360.72 307.8 360.46 C310.37 360.37 314.18 360.91 316.61 360.16 C318.02 359.72 317.19 355.37 317.18 354.23 C317.15 348.63 317.12 343.02 317.17 337.42 C317.18 335.78 318.1 332.6 315.81 332.6 Z M325.41 332.55 C324.65 332.89 325.07 335.94 325.1 336.62 C325.24 340.62 325.27 344.62 325.34 348.62 C325.39 351.29 325.12 353.95 325.15 356.63 C325.16 357.37 324.84 358.93 325.41 359.47 C326.51 360.5 329.59 359.99 331.01 359.91 C334.99 359.67 339.01 359.54 343.02 359.54 C344.58 359.55 347.18 360.08 348.62 359.42 C349.48 359.03 348.94 354.36 348.94 353.43 C348.93 348.64 348.71 343.8 348.94 339.02 C349.03 337.31 349.7 334.18 348.96 332.62 C348.52 331.69 344.73 332.21 343.82 332.21 C339.55 332.21 335.28 332.23 331.01 332.23 C329.3 332.24 326.97 331.84 325.41 332.55 Z M1065.79 332.48 C1059.45 333.96 1054.03 336.14 1048.18 338.89 C1039.44 343.01 1031.86 351.51 1026.06 359.03 C1012.39 376.74 1004.31 397.28 995 417.46 C989.65 429.06 984.75 440.43 977.59 451.08 C974.99 454.94 970.71 459.96 965.74 460.23 C953.4 460.92 946.43 444.13 941.82 435.07 C940.49 432.44 939.2 429.8 938.15 427.06 C937.74 426.01 936.84 425.01 936.84 423.86 C936.84 423.38 939.77 423.53 940.12 423.52 C942.35 423.48 946.9 424.49 948.34 422.26 C949.54 420.39 948.9 417.73 946.53 417.08 C943.97 416.37 940.38 417 937.72 416.99 C936.81 416.98 934.29 417.43 933.72 416.51 C930.35 411.06 928.49 404.17 926.09 398.25 C924.22 393.63 921.72 389.25 919.9 384.64 C914.22 370.26 905.75 354.15 893.7 344.04 C886.76 338.22 877.68 333 868.09 334.7 C865.08 335.23 862.1 336.03 859.28 337.1 C850.07 340.61 840.99 350.49 836.24 359.03 C828.83 372.36 820.99 385.23 814.8 399.05 C811.83 405.7 807.79 412.21 805.09 419.06 C800.71 430.18 792.68 439.82 786.96 450.28 C782.84 457.8 777.21 464.37 771.83 471.09 C753.13 494.44 726.74 509.01 697.6 514.47 C684.73 516.89 671.32 516.29 658.38 514.92 C610.38 509.84 565.77 481.07 534.17 445.47 C527.23 437.65 520.13 429.88 512.98 422.26 C510.94 420.09 508.94 417.9 506.77 415.86 C505.84 414.97 504.15 413.87 503.64 412.66 C501.87 408.42 500.11 403.46 498.86 399.05 C498.33 397.15 498 394.8 495.9 393.85 C493.77 392.89 490.4 393.96 490.24 396.65 C490.11 398.88 491.38 400.98 491.98 403.05 C492.09 403.43 492.85 405.93 491.9 405.93 C491.4 405.93 489.68 404.19 489.28 403.85 C487.27 402.15 485.18 400.49 483.09 398.89 C466.35 386.1 446.02 378.28 424.66 381.98 C416.39 383.42 408.75 386.51 401.45 390.56 C395.69 393.75 391.05 397.94 386.15 402.25 C384.13 404.03 380.81 406.61 380.41 409.45 C379.97 412.63 383.74 414.34 386.24 413.05 C389.52 411.36 392.11 407.34 395.05 405.06 C401.39 400.13 408.29 396.01 415.86 393.26 C437.93 385.23 460.19 392.95 478.29 406.08 C480.51 407.69 482.65 409.51 484.69 411.34 C485.08 411.69 487.03 412.93 487.03 413.46 C487.03 414.42 483.74 414.39 483.09 414.43 C479.77 414.65 469.85 414.54 472.28 420.66 C473.48 423.66 479.61 423.08 482.29 423.29 C488.75 423.79 495.12 424.55 501.5 424.55 C502.93 424.55 505.4 427.73 506.3 428.71 C522.11 445.82 537.15 463.57 555.13 478.53 C591.31 508.62 637.67 529.37 685.59 525.43 C698.14 524.4 709.68 522.37 721.61 518.44 C742.71 511.48 762.39 496.84 776.63 479.89 C780.45 475.34 785.14 470.77 787.88 465.48 C788.36 464.56 789.42 463.96 789.96 463.08 C792.93 458.26 796.29 453.67 798.96 448.67 C803.11 440.91 808.3 433.56 811.74 425.46 C815.79 415.93 821.48 407.04 825.77 397.45 C829.86 388.32 834.66 379.62 839.63 371.03 C843.35 364.6 847.3 357.82 852.77 352.63 C858.05 347.61 865.15 342.56 872.89 343.74 C885.26 345.62 893.77 356.05 899.88 366.23 C913.56 389.05 922.13 414.17 933.38 438.27 C938.67 449.59 946.37 464.55 959.33 468.21 C977.5 473.35 987.52 452.58 994.45 439.87 C996.15 436.75 997.66 433.52 999.08 430.26 C999.98 428.21 1000.95 424.84 1002.56 423.25 C1003.64 422.18 1005.47 422.66 1005.88 420.66 C1006.19 419.18 1004.91 418.12 1005.2 416.66 C1005.8 413.64 1007.93 410.62 1009.21 407.85 C1011.57 402.76 1014 397.72 1016.42 392.65 C1026.04 372.45 1042.18 345.44 1066.59 341.91 C1071.17 341.24 1075.6 341.36 1080.2 341.89 C1097.77 343.9 1112.98 360.6 1121.61 375.04 C1137.4 401.46 1147.07 430.31 1157.56 459.08 C1160.85 468.08 1166.11 476.23 1170.46 484.69 C1172.55 488.75 1176.08 492.22 1178.76 495.9 C1191.48 513.33 1214.48 526.01 1236.28 524.19 C1243.2 523.62 1249.84 521.72 1256.29 519.23 C1264.15 516.2 1272.12 511.12 1278.41 505.5 C1280.38 503.75 1282.41 502.1 1284.3 500.26 C1284.82 499.75 1285.92 498.2 1286.7 498.2 C1287.85 498.2 1289.63 499.75 1290.7 500.21 C1293.35 501.36 1296.02 502.36 1298.82 503.1 C1308.24 505.59 1318.71 504.35 1327.52 500.37 C1333.56 497.65 1340.43 493.37 1344.33 487.87 C1346 485.52 1348.09 483.26 1349.41 480.69 C1349.88 479.78 1350.45 477.57 1351.53 477.21 C1354.99 476.04 1359.15 476.2 1362.74 475.36 C1373.6 472.81 1383.9 469.87 1392.34 462.28 C1397.9 457.28 1397.15 448.34 1392.54 443.07 C1385.8 435.37 1373.79 432.43 1364.34 430.04 C1361.49 429.32 1358.44 428.75 1355.54 428.31 C1354.23 428.12 1352.64 428.31 1351.53 427.48 C1350.56 426.75 1349.9 424.9 1349.27 423.86 C1348.1 421.91 1346.58 420.13 1345.13 418.38 C1340.42 412.72 1333.1 407.61 1325.92 405.81 C1311.21 402.14 1295.85 403.61 1283.5 413.11 C1279.99 415.81 1276.07 419.33 1273.63 423.06 C1273 424.02 1271.9 427.05 1270.69 427.3 C1268.92 427.67 1266.91 427.49 1265.09 427.76 C1253.62 429.44 1241.42 432.07 1231.47 438.06 C1223.93 442.61 1218.78 451.91 1224.78 459.88 C1231.05 468.21 1244.34 471.55 1253.89 473.81 C1257.39 474.63 1261.13 474.92 1264.58 475.89 C1265.41 476.12 1267.37 476.05 1267.87 476.69 C1270.48 480.09 1271.79 484.24 1274.7 487.55 C1275.76 488.77 1279.03 491.2 1279.41 492.7 C1279.6 493.45 1277.58 494.86 1277.1 495.28 C1274.3 497.66 1271.32 500.03 1268.29 502.1 C1254.98 511.21 1238.98 517.07 1222.67 513.65 C1202.82 509.48 1185.54 493.55 1176.51 475.89 C1173.09 469.22 1168.93 462.99 1166.36 455.88 C1156.28 427.98 1146.81 399.07 1131.85 373.44 C1120.94 354.75 1104.69 336.83 1082.6 332.89 C1077.42 331.97 1071.01 331.27 1065.79 332.48 Z M604.75 342.92 C604.66 342.96 605 344.53 605.01 344.62 C605.15 346.48 605.27 348.36 605.32 350.22 C605.57 358.28 605.92 366.22 606.84 374.24 C607.42 379.25 608.05 384.42 608.36 389.44 C608.43 390.66 608.37 394.57 610.36 393.75 C620.51 389.54 630.26 383.86 639.97 378.75 C642.37 377.48 644.75 376.06 647.18 374.89 C647.7 374.64 648.95 374.27 648.95 373.44 C648.95 373.22 646.94 372.01 646.71 371.84 C644.47 370.1 641.86 368.78 639.62 367.03 C636.73 364.78 633.38 363.01 630.37 360.91 C626.1 357.94 622.06 354.22 617.56 351.6 C615.74 350.54 613.62 349.68 611.96 348.48 C610.49 347.42 606.25 342.25 604.75 342.92 Z M708.81 346.71 C708.09 346.71 706.97 347.84 706.41 348.24 C704.62 349.5 702.72 351.04 700.8 352.07 C692.19 356.72 684.66 363.45 675.99 368.07 C673.54 369.38 671.15 370.84 668.79 372.29 C668.09 372.72 666.43 373.13 666.73 374.24 C666.87 374.76 668.36 375.3 668.79 375.55 C670.66 376.63 672.47 377.8 674.39 378.81 C680.83 382.21 687.06 385.92 693.6 389.18 C694.98 389.87 698.44 392.68 700 392.35 C701.4 392.05 701.77 387.45 702.01 386.24 C703.43 379.32 704.82 372.31 706.35 365.43 C707.41 360.67 707.72 355.77 708.74 351.02 C708.87 350.46 709.62 346.71 708.81 346.71 Z M1245.08 352.47 C1242.98 352.89 1242.64 355.02 1242.14 356.63 C1241.21 359.58 1239.75 362.14 1237.88 364.59 C1235.9 367.17 1232.71 368.79 1229.87 370.11 C1228.83 370.59 1227.71 372.26 1227.99 373.44 C1228.42 375.25 1230.88 375.75 1232.27 376.41 C1234.8 377.61 1236.9 379.59 1238.68 381.69 C1240.89 384.29 1241.68 392.97 1245.88 392.56 C1248.26 392.33 1248.31 390.43 1248.96 388.64 C1249.94 385.98 1251.18 383.18 1253.08 381.03 C1255.64 378.14 1258.67 376.5 1261.89 374.52 C1262.71 374.02 1262.97 372.67 1262.67 371.84 C1261.95 369.8 1260.48 369.61 1258.69 368.9 C1256.5 368.04 1253.33 365.96 1252.17 363.83 C1251.02 361.73 1249.7 359.69 1248.91 357.43 C1248.52 356.32 1248.61 355.25 1247.97 354.23 C1247.38 353.28 1246.25 352.23 1245.08 352.47 Z M1340.33 355.58 C1338.14 356.63 1339.14 360.16 1341.13 360.8 C1343.11 361.43 1348.85 362.09 1350.73 361.02 C1352.81 359.85 1352.23 356.31 1349.93 355.76 C1347.45 355.16 1342.67 354.45 1340.33 355.58 Z M1362.74 358.15 C1360.02 358.15 1359.61 361.95 1361.14 363.46 C1363.01 365.3 1367.44 365.52 1369.94 366.23 C1372.77 367.03 1372.94 362.88 1371.97 361.43 C1370.8 359.66 1364.84 358.15 1362.74 358.15 Z M1245.08 362.46 C1244.58 362.68 1244.15 364.15 1243.88 364.63 C1243.09 366.07 1242.18 367.35 1241.08 368.59 C1240.12 369.66 1235.95 372 1236.7 373.44 C1237.88 375.66 1241.7 376.49 1242.95 379.04 C1243.32 379.79 1244.8 383.65 1245.88 382.99 C1247.45 382.05 1248.55 378.32 1249.88 376.83 C1250.72 375.89 1254.51 373.92 1254.31 372.64 C1254.04 370.86 1249.86 369.43 1248.87 367.83 C1248.3 366.91 1246.33 361.91 1245.08 362.46 Z M1383.55 365.32 C1381.32 365.32 1379.86 368.59 1381.28 370.23 C1382.9 372.12 1386.13 372.82 1388.35 373.92 C1389.06 374.27 1389.98 375.1 1390.75 375.17 C1393.25 375.38 1394.36 372.05 1393.16 370.32 C1391.85 368.44 1385.86 365.32 1383.55 365.32 Z M1056.18 369.33 C1053.45 370.64 1053.79 374.86 1056.18 376.27 C1058.14 377.42 1061.21 376.86 1063.39 376.88 C1064.14 376.89 1065.83 376.57 1066.24 377.44 C1067.33 379.7 1066.27 383.03 1067.3 385.44 C1068.03 387.13 1069.08 388.62 1070.59 389.71 C1071.47 390.34 1073.07 390.8 1073.53 391.85 C1073.98 392.85 1073.61 394.75 1073.61 395.85 C1073.59 398.51 1073.59 401.19 1073.72 403.85 C1073.78 405.08 1074.3 406.69 1073.97 407.85 C1073.85 408.3 1072.77 408.5 1072.38 408.65 C1070.71 409.32 1069 409.84 1067.39 410.65 C1062.8 412.93 1057.22 416.51 1055.08 421.46 C1053.02 426.21 1053.03 431.37 1055.72 435.87 C1056.78 437.64 1058.17 439.23 1059.65 440.67 C1060.28 441.29 1061.57 442.04 1061.31 443.07 C1061.01 444.21 1058.15 446.08 1057.33 447.07 C1054.83 450.1 1053.11 454.31 1053.54 458.28 C1053.98 462.3 1056.08 465.62 1058.54 468.68 C1059.21 469.51 1061.7 470.67 1061.39 471.89 C1061.08 473.07 1058.23 474.79 1057.44 475.89 C1055.15 479.07 1053.47 483.09 1053.66 487.09 C1053.85 491.06 1055.72 494.61 1058.33 497.5 C1059.12 498.37 1062.77 500.33 1062.77 501.5 C1062.77 502.17 1061.72 503.23 1061.45 503.9 C1060.34 506.67 1059.96 509.96 1061.34 512.71 C1062.85 515.71 1066.81 518.02 1069.79 519.25 C1070.47 519.53 1073 520.08 1073.33 520.71 C1074.5 522.98 1073.96 529.38 1073.57 531.92 C1073.25 533.97 1068.24 533.06 1066.59 533.06 C1061.2 533.06 1049.41 530.76 1047.21 537.52 C1046.15 540.79 1047 545.29 1046.89 548.73 C1046.59 557.53 1046.89 566.33 1046.84 575.14 C1046.82 578.93 1045.79 584.92 1048.53 587.95 C1051.5 591.21 1057.84 590 1061.79 589.99 C1071.39 589.98 1081 589.95 1090.6 589.96 C1094.76 589.96 1100.29 590.78 1104.21 589.17 C1108.42 587.43 1107.7 580.36 1107.67 576.74 C1107.58 567.14 1107.72 557.53 1107.67 547.92 C1107.65 543.94 1108.45 538.53 1106.06 535.12 C1104.93 533.51 1101.96 533.09 1100.21 533.1 C1095.94 533.13 1091.67 533.06 1087.4 533.08 C1086.45 533.08 1081.77 533.63 1081.38 532.72 C1080.95 531.7 1081.3 529.81 1081.3 528.72 C1081.3 524.93 1082.17 520.13 1080.33 516.71 C1077.87 512.15 1065.3 513.41 1068.8 505.5 C1069.28 504.41 1070.66 505.09 1071.39 505.35 C1073.73 506.17 1076.16 506.78 1078.6 507.27 C1084.72 508.52 1090.99 508.65 1097 506.94 C1100.22 506.03 1104.19 504.2 1105.31 500.7 C1107.73 493.11 1097.91 490.92 1093 489.69 C1087.03 488.2 1080.11 490.21 1074.59 492.39 C1072.74 493.12 1070.07 495.45 1068.19 495.63 C1065.35 495.91 1061.75 490.18 1061.41 487.89 C1060.85 484.03 1063.09 480.45 1065.79 477.94 C1066.41 477.36 1067.3 476.13 1068.19 476.01 C1069.07 475.9 1069.86 476.61 1070.59 476.92 C1072.69 477.82 1074.82 478.58 1076.99 479.28 C1083.67 481.43 1091.13 481.6 1097.81 479.61 C1101.86 478.4 1105.54 475.67 1105.61 471.09 C1105.66 467.52 1102.44 464.73 1099.41 463.46 C1092.36 460.53 1084.29 460.72 1076.99 462.8 C1074.83 463.41 1072.69 464.38 1070.59 465.19 C1069.9 465.46 1068.93 466.53 1068.19 466.53 C1066.08 466.53 1062.82 462.44 1062.2 460.68 C1060.69 456.31 1062.07 452.57 1065.32 449.47 C1066.29 448.55 1067.53 447.19 1068.99 447.35 C1071.26 447.6 1073.99 449.65 1076.19 450.45 C1082.72 452.81 1090.32 453.06 1097 451.55 C1100.15 450.83 1104.16 448.82 1105.28 445.47 C1106.79 440.95 1103.37 436.95 1099.41 435.41 C1091.89 432.5 1084 432.35 1076.19 434.77 C1074.21 435.39 1069.3 438.46 1067.39 437.74 C1066.41 437.37 1065.23 435.82 1064.5 435.07 C1058.3 428.71 1063 420.89 1069.79 417.66 C1071.11 417.03 1074.69 414.86 1076.19 415.37 C1076.9 415.61 1077.3 416.91 1077.58 417.46 C1078.27 418.81 1079.76 420.61 1081 421.51 C1087.22 426.03 1096.08 427.15 1102.61 422.47 C1109.85 417.27 1102.33 409.79 1097 407.53 C1093.47 406.03 1088.95 405.87 1085.17 406.25 C1083.8 406.39 1081.59 407.27 1081.27 405.45 C1080.73 402.41 1081.14 398.94 1081.14 395.85 C1081.13 394.77 1080.76 392.83 1081.14 391.85 C1082.15 389.24 1086.6 388.58 1087.71 385.44 C1088.43 383.4 1088.69 381.22 1088.66 379.04 C1088.65 378.48 1088.33 377.32 1089 376.97 C1091.88 375.44 1099.23 378.74 1099.92 373.44 C1100.63 368.11 1094.92 368.75 1091.4 368.74 C1083.4 368.71 1075.39 368.85 1067.39 368.78 C1064.01 368.76 1059.27 367.85 1056.18 369.33 Z M1402.76 377.31 C1401.29 377.76 1400.54 380.13 1400.94 381.44 C1401.16 382.18 1402.15 382.89 1402.76 383.29 C1404.42 384.39 1407.99 388.39 1409.96 387.99 C1411.47 387.68 1412.82 385.17 1412.08 383.84 C1410.91 381.71 1405.33 376.52 1402.76 377.31 Z M657.58 379 C654.56 379 650.69 382.78 647.98 384.08 C639.07 388.34 630.64 393.62 621.56 397.64 C618.84 398.84 616.19 400.18 613.5 401.45 C612.8 401.78 611.03 402.26 610.65 403.05 C610.07 404.26 611.23 406.53 611.37 407.85 C611.9 412.67 613.19 417.58 614.46 422.26 C615.42 425.79 616.66 429.2 617.79 432.67 C622.48 447.07 632.57 467.9 650.38 467.9 C658.5 467.9 665.85 462.44 671.19 456.71 C672.29 455.54 675.47 452.78 675.47 451.08 C675.47 449.85 672.96 447.55 672.46 446.27 C670.5 441.22 671.04 435.89 673.39 431.07 C675.64 426.45 680.23 424.39 684.79 423.06 C686.14 422.67 690.81 423.51 691.46 422.26 C692.5 420.26 692.68 417.98 693.31 415.86 C694.26 412.64 695.73 409.56 696.38 406.25 C696.67 404.78 697.87 402.86 697.87 401.45 C697.87 400.55 696.65 400 696 399.68 C693.59 398.54 691.18 397.4 688.8 396.19 C681.25 392.37 673.72 388.46 666.39 384.25 C664.37 383.1 662.19 381.99 660.29 380.64 C659.87 380.34 658.06 379 657.58 379 Z M1420.37 392.46 C1418.96 392.47 1417.13 394.44 1417.48 395.85 C1417.79 397.06 1419.03 398.11 1419.77 399.05 C1421.16 400.82 1422.38 403.58 1424.37 404.65 C1426.06 405.56 1428.46 403 1428.46 401.45 C1428.46 400.77 1427.19 399.44 1426.77 398.93 C1425.46 397.3 1422.7 392.44 1420.37 392.46 Z M1308.31 412.6 C1302.02 413.66 1296.19 415.26 1290.7 418.69 C1280.68 424.95 1273.36 437.11 1271.95 448.67 C1271.34 453.73 1271.42 458.9 1272.51 463.88 C1272.69 464.71 1272.98 467.87 1273.9 468.29 C1275.87 469.18 1278.99 468.9 1281.1 469.15 C1284.57 469.56 1288.01 469.85 1291.5 470.15 C1302.93 471.12 1314.46 471.22 1325.92 470.75 C1331.59 470.51 1337.98 470.89 1343.53 469.68 C1346.86 468.96 1346.99 466.07 1347.72 463.08 C1349.17 457.1 1350.14 449.57 1348.33 443.52 C1347.02 439.14 1345.92 435.14 1343.75 431.07 C1337.48 419.24 1321.68 410.33 1308.31 412.6 Z M1431.58 412.46 C1430.5 413.09 1430.06 414.76 1430.42 415.86 C1431.43 418.99 1433.35 427.86 1437.98 425.65 C1439.21 425.06 1439.43 423.39 1439.08 422.26 C1438.21 419.44 1435.98 409.88 1431.58 412.46 Z M1085 413.88 C1083.85 414.34 1086.23 415.96 1086.6 416.2 C1088.87 417.64 1091.12 418.14 1093.8 417.94 C1094.47 417.89 1096.8 417.86 1096.8 416.66 C1096.8 416.08 1094.93 415.32 1094.6 415.18 C1092.12 414.07 1087.7 412.82 1085 413.88 Z M1189.05 414.98 C1185.89 415.53 1185.74 420.4 1189.05 420.79 C1193.81 421.35 1199.5 421.16 1204.26 420.66 C1207.5 420.32 1207.34 415.36 1204.26 414.97 C1199.79 414.39 1193.49 414.22 1189.05 414.98 Z M1118.62 415.59 C1116.63 416.39 1116.39 420.23 1118.62 420.94 C1121.82 421.95 1126.48 421.01 1129.82 421.01 C1131.13 421.01 1132.54 421.26 1133.74 420.66 C1135.92 419.57 1135.08 416.15 1133.02 415.44 C1131.89 415.06 1130.2 415.42 1129.02 415.42 C1126.05 415.42 1121.39 414.49 1118.62 415.59 Z M1157.84 415.42 C1156.04 416.32 1155.75 419.99 1157.9 420.66 C1160.78 421.56 1164.44 420.99 1167.44 420.98 C1168.99 420.97 1170.76 421.25 1172.24 420.73 C1174.72 419.87 1175.01 415.91 1172.24 415.29 C1169.11 414.59 1165.08 415.4 1161.84 415.28 C1160.66 415.24 1158.94 414.87 1157.84 415.42 Z M1020.17 416.59 C1017.55 417.49 1016.93 421.89 1020.17 422.39 C1024.97 423.13 1032.21 423.24 1036.97 422.31 C1039.84 421.75 1039.67 417.08 1036.97 416.42 C1035.48 416.06 1033.7 416.35 1032.17 416.33 C1028.56 416.3 1023.6 415.42 1020.17 416.59 Z M358.23 417.34 C353.22 419.57 347.65 421.29 342.84 423.86 C341.81 424.41 338.64 424.81 338.58 426.26 C338.52 427.93 340.41 430.25 340.93 431.87 C342.35 436.21 344.4 440.37 345.96 444.67 C346.45 446.01 347.51 450.58 349.42 449.81 C354.97 447.6 359.98 444.34 365.43 442.03 C366.62 441.53 370.35 440.66 370.35 439.07 C370.35 438.07 368.89 436.02 368.49 435.07 C366.57 430.58 364.47 425.99 362.76 421.46 C362.3 420.24 361.88 417.4 360.63 416.71 C360.06 416.39 358.72 417.12 358.23 417.34 Z M898.5 417.41 C896.4 417.55 894.58 417.73 892.9 419.03 C891.65 420 892.37 422.78 893.7 423.36 C895.29 424.07 897.61 423.69 899.3 423.68 C902.98 423.65 907.76 424.55 911.31 423.67 C914.41 422.91 914 418.65 911.31 417.62 C910.06 417.13 908.61 417.46 907.31 417.47 C904.38 417.49 901.42 417.21 898.5 417.41 Z M964.14 417.23 C961.51 418.15 960.04 421.39 963.34 422.72 C967.02 424.21 972.98 422.96 976.94 423.07 C978.44 423.11 980.38 423.52 981.75 422.76 C984.05 421.48 984.64 418.05 981.75 416.96 C980.16 416.37 977.8 416.89 976.14 416.93 C972.47 417 967.62 416.02 964.14 417.23 Z M828.87 418.13 C825.95 418.38 823.65 422.88 827.27 424.11 C828.66 424.59 830.62 424.24 832.07 424.24 C835.78 424.24 841.37 425.27 844.88 424.07 C847.75 423.09 846.82 418.49 844.08 418.08 C839.38 417.37 833.59 417.71 828.87 418.13 Z M861.68 418.04 C858.43 418.82 858.19 423.47 861.68 424.06 C866 424.79 873.46 424.86 877.69 423.68 C880.53 422.88 880.47 418.77 877.69 417.87 C876.31 417.42 874.33 417.79 872.89 417.79 C869.33 417.8 865.16 417.21 861.68 418.04 Z M787.25 418.81 C785.08 419.73 784.92 423.15 787.25 424.03 C789.25 424.79 793.99 424.8 796.05 424.19 C798.54 423.45 798.26 419.4 796.05 418.55 C794.29 417.87 788.97 418.08 787.25 418.81 Z M415.86 426.04 C413.22 426.57 411 428.36 408.65 429.57 C403.93 432.01 399.22 435.8 395.76 439.87 C393.75 442.23 390.49 445.58 393.13 448.67 C394.27 450.02 396.83 449.59 398.05 448.67 C399.66 447.46 400.64 445.37 401.96 443.87 C403.88 441.69 406.32 439.65 408.65 437.95 C410.62 436.52 412.86 435.22 415.06 434.18 C416.04 433.72 417.54 433.37 418.26 432.49 C419.96 430.42 419.72 425.25 415.86 426.04 Z M688.8 433.45 C680.78 433.45 679.93 445.63 688 445.86 C695.44 446.07 696.69 433.45 688.8 433.45 Z M1438.78 435.44 C1437.72 435.84 1437.02 437.18 1437.03 438.27 C1437.07 440.96 1436.99 445.31 1437.73 447.87 C1438.11 449.22 1439.85 450.22 1441.18 449.86 C1441.97 449.64 1442.93 448.64 1443.19 447.87 C1443.51 446.94 1443.24 445.64 1443.21 444.67 C1443.13 442.07 1443.69 433.57 1438.78 435.44 Z M1265.09 436.5 C1255.57 438.34 1246.59 439.99 1237.88 444.18 C1235.1 445.52 1230.57 448.35 1230.44 451.88 C1230.33 454.74 1234.08 457.11 1236.28 458.24 C1242.6 461.48 1248.67 463.34 1255.49 465.17 C1257.37 465.67 1262.39 467.67 1264.29 466.73 C1264.63 466.56 1263.9 463.6 1263.85 463.08 C1263.48 458.81 1262.84 454.66 1263.16 450.28 C1263.48 445.72 1265.52 441.79 1266.3 437.47 C1266.5 436.38 1265.88 436.34 1265.09 436.5 Z M1356.34 437.39 C1355.29 437.39 1356.18 440.19 1356.29 440.67 C1357.11 444.31 1357.73 448.14 1357.71 451.88 C1357.7 455.92 1357.28 459.98 1356.27 463.88 C1356.01 464.89 1354.65 467.6 1356.34 467.76 C1359.11 468.04 1362.47 466.56 1365.14 465.98 C1371.17 464.68 1376.61 462.44 1381.95 459.54 C1384.44 458.2 1387.99 455.92 1388.12 452.68 C1388.24 449.41 1384.43 446.81 1381.95 445.5 C1375.37 442.03 1369.08 440.4 1361.94 438.58 C1360.2 438.14 1358.13 437.39 1356.34 437.39 Z M1338.73 438.8 C1338.52 438.83 1337.66 441.79 1337.63 442.27 C1337.46 444.75 1339.12 447.17 1339.07 449.47 C1339.04 451.03 1338.42 452.7 1338.28 454.28 C1338.17 455.5 1337.85 456.45 1337.19 457.48 C1335.61 459.94 1329.59 461.01 1333.76 464.68 C1334.26 465.12 1334.9 465.11 1335.53 465.1 C1344.87 464.94 1342.9 451.39 1342.42 445.47 C1342.29 443.92 1340.94 438.52 1338.73 438.8 Z M1085.8 440.53 C1083.68 440.88 1081.53 441.58 1079.4 441.81 C1079.08 441.85 1077.38 441.78 1077.27 442.27 C1077.03 443.43 1080.15 443.95 1081 444.16 C1084.75 445.09 1089.15 445.64 1093 445.03 C1093.68 444.92 1097 443.93 1097 443.07 C1097 442.3 1095.03 441.78 1094.6 441.62 C1092.01 440.63 1088.61 440.07 1085.8 440.53 Z M372.64 448.57 C370.67 448.57 367.92 450.59 366.23 451.48 C362.59 453.39 358.58 454.63 354.97 456.68 C353.66 457.42 350.39 458.06 350.23 459.88 C349.69 466.04 351.64 472.95 352.15 479.09 C352.24 480.18 351.77 485.13 353.43 485.11 C354.39 485.1 356.47 483.27 357.43 482.83 C361.7 480.88 365.91 478.42 370.23 476.59 C371.14 476.2 374.35 475.3 374.67 474.29 C375.51 471.59 374.28 467.43 373.96 464.68 C373.5 460.75 373.39 456.63 373.17 452.68 C373.15 452.23 373.19 448.57 372.64 448.57 Z M181.34 449.87 C180.56 449.87 181.94 453.18 182.03 453.48 C183.12 457.04 184.63 460.43 186.02 463.88 C191.56 477.66 201.93 487.28 213.64 495.9 C219.2 499.99 226.08 503.08 232.56 505.36 C252.06 512.22 273.2 513.54 293.39 508.86 C301.66 506.94 309.44 504.22 317.41 501.35 C324.7 498.73 332.23 495.5 339.08 491.9 C340.21 491.3 344.56 489.92 344.95 488.69 C345.46 487.08 344.65 484.74 344.43 483.09 C343.81 478.33 343.58 473.47 343.17 468.68 C343.1 467.93 342.76 463.02 342.22 463.02 C339.96 463.02 337.03 465.54 335.02 466.44 C327.8 469.68 320.82 473.49 313.4 476.22 C296.68 482.36 279.39 486.79 261.38 486.92 C240.84 487.07 220.04 480.85 202.95 469.77 C197.01 465.92 191.57 461.05 186.7 455.88 C185.39 454.49 184.15 453.07 182.94 451.59 C182.7 451.3 181.78 449.87 181.34 449.87 Z M1438.78 459.67 C1437.55 459.86 1436.48 461.11 1436.26 462.28 C1435.69 465.2 1431.54 474.66 1437.18 474.3 C1438 474.25 1439.36 473.55 1439.65 472.69 C1440.58 469.94 1442.31 465.21 1441.94 462.28 C1441.76 460.88 1440.26 459.43 1438.78 459.67 Z M1085.8 468.62 C1083.38 469.04 1081 469.49 1078.6 469.98 C1078.19 470.07 1076.54 470.48 1076.54 471.09 C1076.54 471.47 1079.72 472.23 1080.2 472.31 C1083.79 472.88 1087.7 474.35 1091.4 473.62 C1092.26 473.45 1097.42 472.73 1096.9 471.09 C1096.7 470.44 1095.11 469.84 1094.6 469.63 C1092.08 468.59 1088.52 468.14 1085.8 468.62 Z M466.28 478.11 C463.71 479.15 462.89 482.52 461.79 484.69 C459.54 489.13 456.24 493.08 454.01 497.5 C453.41 498.67 451.64 503.1 450.27 503.32 C444.52 504.26 437.7 503.51 431.87 503.3 C429.2 503.21 425.87 503.1 425.01 506.3 C424.17 509.42 426.38 511.28 428.06 513.51 C430.3 516.46 432.67 519.32 434.85 522.31 C435.68 523.46 438.28 525.56 437.87 527.11 C437.34 529.08 435.78 530.89 434.95 532.72 C432.57 537.9 429.79 542.73 427.45 547.92 C426.3 550.49 424.22 554.58 427.86 556.34 C430.93 557.82 433.79 555.84 436.67 554.88 C441.27 553.35 445.67 551.36 450.27 549.82 C452.29 549.15 455.42 546.84 457.48 546.84 C459.21 546.84 462.2 550.78 463.38 551.93 C467.74 556.15 472.23 560.24 476.69 564.35 C478.69 566.2 480.93 568.28 483.89 567.35 C487.68 566.16 486.34 561.03 486.02 558.33 C485.46 553.56 485.46 548.69 484.82 543.92 C484.44 541.05 483.8 538.04 483.87 535.12 C483.9 533.83 487.74 532.04 488.69 531.35 C494.11 527.42 499.18 523 504.7 519.2 C506.48 517.98 506.94 515.29 506.02 513.51 C504.73 511 502.36 511.08 499.9 510.63 C494.81 509.71 489.79 508.5 484.69 507.67 C483.44 507.46 479.44 507.29 478.66 506.3 C477.41 504.73 477.49 501.81 476.97 499.9 C475.53 494.57 474.22 489.2 472.67 483.89 C471.78 480.82 470.8 476.27 466.28 478.11 Z M1278.7 477.94 C1277.88 478.22 1280.36 481.05 1280.72 481.49 C1283.56 484.91 1286.96 487.99 1290.7 490.38 C1303.39 498.48 1320.17 497.01 1331.9 487.89 C1334.37 485.97 1336.58 483.95 1338.53 481.49 C1338.95 480.96 1340.48 479.8 1340.48 479.09 C1340.48 478.36 1336.08 478.84 1335.53 478.92 C1329.49 479.88 1323.23 479.73 1317.12 479.81 C1309.1 479.91 1300.21 480.63 1292.3 479.2 C1289.15 478.62 1285.9 478.76 1282.7 478.34 C1281.55 478.18 1279.83 477.54 1278.7 477.94 Z M153.32 478.79 C151.64 479.57 151.2 481.43 151.38 483.09 C151.77 486.88 153.79 490.89 155.37 494.3 C160.33 504.99 169.27 515.64 179.74 521.32 C182.54 522.84 187.62 526.35 190.94 525.05 C193.84 523.92 193.24 520.19 190.94 518.8 C183.91 514.55 177.25 511.09 171.71 504.7 C167.85 500.27 163.35 494.99 161.15 489.5 C160.11 486.87 159.5 484.11 158.5 481.49 C157.68 479.35 155.71 477.67 153.32 478.79 Z M1429.97 482.74 C1429.24 482.98 1428.42 484.05 1428.06 484.69 C1426.91 486.76 1424.36 489.62 1423.89 491.9 C1423.47 493.93 1425.43 496.28 1427.57 495.37 C1429.87 494.4 1431.64 489.94 1432.75 487.89 C1433.14 487.18 1433.77 486.32 1433.82 485.49 C1433.96 483.55 1431.68 482.17 1429.97 482.74 Z M466.28 493.25 C465.71 493.25 463.82 496.93 463.48 497.5 C461.57 500.67 459.77 503.91 457.9 507.1 C457.02 508.6 456.2 510.84 454.28 511.34 C450.43 512.33 445.44 511.39 441.47 511.47 C440.81 511.49 437.99 511.15 437.68 511.91 C437.36 512.72 439.75 515.26 440.28 515.91 C442.7 518.86 447.1 523.13 446.68 527.11 C446.51 528.8 445.01 530.39 444.35 531.92 C443.05 534.91 441.38 537.72 440.18 540.72 C440 541.17 437.82 544.68 438.27 544.85 C439.97 545.51 442.99 543.34 444.67 542.79 C448.99 541.36 456.06 537.1 460.68 538.71 C462.48 539.34 464.14 541.36 465.48 542.64 C467.82 544.87 470.3 546.91 472.69 549.08 C473.35 549.68 475.9 552.88 476.69 552.88 C477.49 552.88 477.05 548.53 477.02 547.92 C476.81 542.98 474.52 536.79 475.59 531.92 C475.96 530.2 477.77 529.14 479.09 528.24 C482.15 526.14 484.88 523.58 487.89 521.42 C488.38 521.07 492.02 518.68 492.03 518.31 C492.06 516.75 488.41 516.78 487.09 516.48 C482.83 515.51 476.21 515.75 472.69 512.99 C471.28 511.89 471.01 509.56 470.67 507.9 C470 504.69 468.71 501.57 468.22 498.3 C468.09 497.46 467.36 493.25 466.28 493.25 Z M1086.6 496.61 C1084.08 496.88 1081.77 497.44 1079.4 498.3 C1079.17 498.38 1077.65 498.76 1077.65 499.1 C1077.65 499.93 1079.73 500.09 1080.2 500.18 C1083.56 500.83 1087.17 501.21 1090.6 500.94 C1092.03 500.83 1097.03 500.31 1096.37 498.3 C1096.19 497.75 1094.31 497.22 1093.8 497.11 C1091.39 496.56 1089.08 496.34 1086.6 496.61 Z M1417.17 500.58 C1415.1 500.58 1412.18 504.31 1410.77 505.65 C1410.19 506.2 1409.12 507.01 1409.12 507.9 C1409.12 509.2 1410.18 511.09 1411.57 511.39 C1413.69 511.86 1416.58 508.04 1417.97 506.73 C1418.51 506.22 1419.58 505.42 1419.82 504.7 C1420.31 503.21 1418.97 500.58 1417.17 500.58 Z M139.72 505.49 C137.69 506.43 137.93 508.6 138.34 510.31 C139.17 513.76 140.82 516.79 142.43 519.91 C147.5 529.72 158.19 539.2 168.53 542.77 C171.29 543.72 176.7 546.63 179.5 544.72 C181.82 543.14 181.5 539.52 178.94 538.27 C177.49 537.57 175.68 537.46 174.13 536.97 C168.68 535.25 163.41 531.63 159.09 527.91 C154.65 524.1 150.01 518.78 147.49 513.51 C146.5 511.43 146.06 509.09 144.96 507.1 C143.84 505.08 141.8 504.52 139.72 505.49 Z M893.7 507.03 C891.26 508.16 891.01 511.63 892.54 513.51 C894.94 516.45 900.05 518.34 903.31 520.27 C904.03 520.7 907.37 522.05 907.07 523.11 C906.94 523.6 905.89 523.09 905.71 523.07 C903.88 522.78 901.95 522.81 900.1 522.74 C892.62 522.46 885.19 521.97 877.69 521.9 C858.2 521.71 838.59 522.63 819.26 524.86 C803.32 526.71 786.74 528.42 771.24 532.63 C765.1 534.3 758.97 536.16 752.83 537.77 C747.86 539.07 741.32 540.4 736.96 543.12 C735.01 544.34 733.22 546.16 734.01 548.73 C734.66 550.8 737.22 551.92 739.22 551.3 C745.62 549.31 751.77 546.29 758.43 545.04 C765.35 543.73 772.47 541.59 779.24 539.73 C786.01 537.88 793.22 537.72 800.05 536.16 C812.11 533.4 825.29 532.42 837.67 531.7 C855.57 530.67 873.37 530.57 891.3 530.8 C895.58 530.85 899.83 531.35 904.11 531.56 C904.94 531.6 908.41 531.37 908.91 532.07 C909.5 532.9 906.54 534.57 905.75 535.12 C902.82 537.2 899.94 539.87 896.9 541.74 C895.99 542.3 894.77 542.91 894.23 543.92 C892.28 547.58 894.45 552.74 899.3 551.3 C901.68 550.59 903.65 548.13 905.71 546.84 C911.7 543.1 917.19 538.5 923.32 535.04 C926.04 533.5 929.46 531.58 929.21 527.91 C928.96 524.35 925.24 522.52 922.52 520.93 C916.04 517.17 909.29 513.57 903 509.51 C900.31 507.76 896.96 505.53 893.7 507.03 Z M1400.36 513.48 C1399.62 513.48 1398.6 514.3 1397.96 514.67 C1396.37 515.6 1393.06 516.67 1392.12 518.31 C1391.27 519.81 1392.03 522.62 1393.96 522.96 C1396.35 523.38 1402.19 519.55 1403.38 517.51 C1404.21 516.08 1401.75 513.48 1400.36 513.48 Z M1381.15 522.99 C1378.91 523.81 1374.98 524.33 1373.47 526.31 C1372.23 527.95 1373.41 530.72 1375.55 530.79 C1377.62 530.85 1380.01 529.6 1381.95 528.98 C1385.85 527.74 1385.35 521.44 1381.15 522.99 Z M1357.94 529.42 C1356.93 529.66 1355.68 529.66 1354.74 530.04 C1352.34 531 1352.33 534.83 1354.74 535.71 C1356.67 536.42 1360.74 535.09 1362.74 534.59 C1365.39 533.92 1366.29 530.13 1363.54 528.95 C1362.14 528.35 1359.38 529.08 1357.94 529.42 Z M1334.73 531.82 C1332.2 532.15 1330.34 536.2 1333.19 537.52 C1335.18 538.43 1339.77 538.18 1341.93 537.76 C1344.77 537.2 1345.72 532.81 1342.73 531.72 C1340.73 530.99 1336.85 531.55 1334.73 531.82 Z M1304.31 533.47 C1299.25 533.47 1296.19 539.15 1295.02 543.12 C1292.94 550.25 1299.21 558.61 1306.71 558.87 C1316.96 559.23 1323.78 547.59 1317.92 538.96 C1316.78 537.28 1315.8 535.59 1313.92 534.65 C1311.26 533.31 1310.34 534.9 1310.53 537.52 C1310.65 539.34 1313.42 540.71 1314.15 542.32 C1316.38 547.21 1312.2 553.83 1306.71 553.07 C1301.08 552.29 1299 547.19 1301 542.32 C1301.9 540.16 1304.52 540.13 1305.58 538.32 C1306.4 536.94 1306.54 533.47 1304.31 533.47 Z M984.15 540.38 C982.11 541.01 982.16 542.94 981.75 544.62 C981.06 547.42 980.09 550.19 978.73 552.73 C977.66 554.71 976.01 556.84 974.31 558.33 C973.06 559.43 970.76 560.61 970.29 562.33 C969.83 564 970.59 565.39 972.14 566 C974.67 566.99 977.31 564.81 979 563.13 C983.24 558.92 986.93 553.19 987.62 547.12 C987.89 544.76 988.53 539.02 984.15 540.38 Z M1056.18 541.38 C1053.88 541.74 1054.89 548.52 1054.9 550.33 C1054.96 557.8 1054.96 565.27 1054.95 572.74 C1054.95 574.9 1054.06 579.76 1055.38 581.47 C1055.8 582.01 1057.22 581.72 1057.78 581.73 C1060.66 581.81 1063.74 581.99 1066.59 581.61 C1077.08 580.2 1088.07 582.79 1098.61 581.59 C1099.95 581.44 1099.59 579.98 1099.61 579.14 C1099.64 577.01 1099.65 574.87 1099.64 572.74 C1099.61 565 1099.63 557.26 1099.63 549.53 C1099.63 547.98 1100.45 542.99 1099.41 541.92 C1098.54 541.02 1097.35 541.28 1096.2 541.26 C1093.54 541.23 1090.87 541.26 1088.2 541.3 C1081.27 541.4 1074.32 541.35 1067.39 541.32 C1063.78 541.3 1059.75 540.82 1056.18 541.38 Z M1000.96 547.84 C998.79 548.76 999.11 551.69 998.61 553.53 C997.36 558.13 995.79 562.33 993.16 566.33 C991.7 568.57 989.89 570.96 987.89 572.74 C986.78 573.72 984.74 574.53 984.11 575.94 C983.29 577.76 983.59 580.19 985.75 580.95 C988.74 582 991.77 578.63 993.75 576.83 C999.87 571.28 1003.57 563.06 1005.18 555.13 C1005.77 552.23 1005.73 545.82 1000.96 547.84 Z M1172.24 549.22 C1166.13 550.45 1171.77 557.51 1173.84 559.64 C1178.95 564.9 1187.72 570.23 1195.46 568.8 C1198.66 568.2 1199.57 563.47 1196.26 562.29 C1194.7 561.73 1193.05 562.12 1191.45 561.77 C1187.17 560.83 1182.99 558.95 1179.77 555.93 C1177.98 554.26 1175.02 548.66 1172.24 549.22 Z M1161.04 566.11 C1155.81 567.33 1159.55 572.94 1161.5 575.14 C1166.95 581.29 1174.72 585.34 1182.65 586.88 C1185.39 587.42 1188.52 588.36 1190.38 585.54 C1191.5 583.85 1190.21 581.06 1188.25 580.46 C1186.99 580.07 1185.55 580.48 1184.25 580.17 C1181.18 579.45 1178.3 578.5 1175.45 577.17 C1171.71 575.44 1168.55 572.29 1165.84 569.25 C1164.66 567.92 1163.14 565.62 1161.04 566.11 Z"/><path fill="#ff6a00" fill-rule="evenodd" d="M1293.11 245.28 C1291.58 245.34 1289.5 245.23 1288.32 246.17 C1287.79 246.6 1288.33 247.36 1288.5 247.77 C1289.03 249.04 1289.99 253.33 1291.5 253.58 C1297.73 254.6 1304.44 253.17 1310.71 253.74 C1314.47 254.08 1318.92 255.07 1322.72 254.48 C1322.97 254.44 1323.33 254.41 1323.42 254.18 C1323.51 253.98 1323.15 252.13 1323.14 251.77 C1323.09 250.25 1323.47 249.2 1323.79 247.77 C1323.88 247.38 1324.15 246.14 1323.52 245.99 C1321.85 245.6 1319.64 245.99 1317.92 245.99 C1313.12 245.99 1308.3 246.18 1303.51 246.16 C1300.06 246.15 1296.42 245.15 1293.11 245.28 Z M1016.16 247.63 C1010.76 249.4 1005.13 252.03 1002.17 257.38 C999.48 262.21 997.74 267.76 998.42 273.38 C1000.09 287 1013.7 295.18 1026.57 292.09 C1039.17 289.06 1045.26 273.64 1041.19 262.18 C1037.9 252.94 1026.27 244.31 1016.16 247.63 Z M1016.96 259.58 C1014.05 260.29 1011.87 264.36 1011.31 266.98 C1010.85 269.19 1012.25 270.63 1014.56 269.85 C1016.08 269.34 1020.12 264.65 1020.03 262.98 C1019.96 261.57 1018.66 259.17 1016.96 259.58 Z M653.58 278.18 C634.62 282.63 627.51 308.44 641.57 321.87 C643.77 323.96 646.59 326.52 649.58 327.35 C655.24 328.93 660.47 329.53 666.39 328.2 C679.07 325.33 686.84 310.46 684.18 298.2 C681.23 284.52 667.63 274.88 653.58 278.18 Z M654.38 289.95 C650.4 291.11 646.43 295.63 645.99 299.8 C645.7 302.62 645.44 306.78 649.58 305.79 C652.69 305.05 652.21 301.32 653.27 299 C653.85 297.72 655.51 296.03 656.78 295.42 C657.62 295.02 659.16 294.55 659.33 293.4 C659.77 290.48 656.77 289.25 654.38 289.95 Z M1431.58 313.04 C1429.57 313.62 1428.88 316.47 1429.5 318.21 C1430.43 320.84 1433.53 324.33 1435.57 326.21 C1436.45 327.02 1438.04 328.22 1437.31 329.41 C1437.14 329.7 1433.61 327.7 1433.18 327.53 C1431.39 326.84 1427.85 324.96 1425.97 325.18 C1425.63 325.22 1425.13 326.65 1424.96 327.01 C1424.22 328.59 1422.79 330.76 1423.34 332.62 C1423.58 333.41 1425.38 333.9 1425.96 334.22 C1428.19 335.4 1430.8 336.31 1433.18 337.12 C1433.93 337.39 1436.67 338.02 1436.67 339.02 C1436.67 339.59 1433.54 340.24 1433.18 340.39 C1430.24 341.66 1427.24 342.95 1424.37 344.4 C1420.72 346.24 1420.01 352.75 1425.17 352.77 C1428.05 352.78 1431.26 350.65 1433.98 349.85 C1439.11 348.35 1444.07 346.22 1449.18 344.51 C1451.89 343.61 1455.33 342.41 1455.61 339.02 C1455.89 335.72 1453.56 333.15 1451.59 330.8 C1447.52 325.96 1443.24 321.3 1439.01 316.61 C1436.99 314.36 1434.96 312.05 1431.58 313.04 Z"/></svg>
